<svg xmlns="http://www.w3.org/2000/svg" width="78" height="81.816" viewBox="0 0 78 81.816">
  <g id="building_1_" data-name="building (1)" transform="translate(-12 512)">
    <path id="Path_146" data-name="Path 146" d="M44.086-511.824c-.528.3-.751,1.151-.751,2.862,0,2.366.368,3.038,1.663,3.038h.576v14.868H43.366l-.064-1.679c-.064-1.791-.272-2.334-1.1-2.75-.576-.3-9.72-.288-10.423.016-.9.368-1.071.831-1.071,2.7v1.663l-1.2.1c-1.215.1-1.679.288-2.126.943-.24.336-.272,1.615-.32,14.069l-.032,13.717h-3.2v-.687a3.419,3.419,0,0,0-1.167-2.75c-1.119-1.151-1.87-1.359-4.748-1.359-2.606,0-3.565.224-4.508,1.087a4.611,4.611,0,0,0-1.023,1.391l-.384.8v9.049c0,8.617.016,9.081.3,9.432a1.336,1.336,0,0,0,1.743.1c.256-.256.272-1.007.352-9.193.08-8.169.1-8.937.368-9.32.448-.671.927-.783,3.165-.783,2.382,0,2.91.16,3.277,1.039.336.815.336,26.682,0,27.5-.384.911-.879,1.119-2.974,1.167-3.213.1-3.725-.288-3.8-2.894-.048-1.391-.112-1.679-.4-1.982a1.152,1.152,0,0,0-1.695.016c-.352.368-.368.48-.3,2.446.064,2.3.192,2.686,1.263,3.725.975.943,1.711,1.119,4.636,1.119,2.7,0,3.437-.144,4.412-.9a4.407,4.407,0,0,0,1.455-2.51l.112-.687,8.153,3.1c8.137,3.085,8.153,3.1,9.672,3.181,1.327.064,2.958-.128,13.269-1.615,6.459-.943,12.294-1.807,12.949-1.95a13.141,13.141,0,0,0,4.348-1.918c.448-.3,4.4-3.8,8.777-7.754,8.921-8.025,8.761-7.866,8.9-9.992a4.413,4.413,0,0,0-1.263-3.661,4.46,4.46,0,0,0-3.549-1.519c-1.439,0-1.982.208-3.821,1.407-.911.608-1.743,1.135-1.839,1.215-.16.1-.208-4.94-.208-24.908v-25.036h.384a1.6,1.6,0,0,0,.847-.384l.448-.384v-4.54l-.448-.384L80.088-512H75.724c-4.732,0-4.684-.016-4.956.911a1.479,1.479,0,0,0,.623,1.391c.144.048,1.807.1,3.693.1h3.421v1.279H45.892V-509.6h19.3l.336-.368a1.25,1.25,0,0,0,.032-1.679L65.221-512H54.8C47.683-511.984,44.278-511.936,44.086-511.824Zm32.629,31.83-.048,25.947-4.8,3.2-4.8,3.2L65.54-447.7l-1.535-.048-.192-1.167a7.7,7.7,0,0,0-1.5-3.5l-.592-.751h1.823c1.743,0,1.823-.016,2.238-.416l.416-.432v-3.405c0-3.373,0-3.405-.384-3.853l-.384-.448H59.481l-.432.448-.448.432-.048,2.958c-.048,2.926-.064,2.958-.4,2.958a3.543,3.543,0,0,1-.7-.1c-.368-.1-.368-.128-.368-2.894a14.577,14.577,0,0,0-.176-3.117c-.32-.608-1.087-.767-3.629-.767-3.8,0-3.869.064-3.869,3.549v2.286l-.719-.048-.719-.064v-49.847H76.747ZM40.777-492.1v1.039H33.1v-2.078h7.674Zm4.8,5.356v1.759H38.73c-7.61,0-7.386-.032-7.706,1.087a13.27,13.27,0,0,0-.16,2.238c0,1.775.224,2.606.767,2.894a61.525,61.525,0,0,0,7.13.176h6.81v3.2h-6.81a61.525,61.525,0,0,0-7.13.176c-.544.288-.767,1.119-.767,2.894a11.416,11.416,0,0,0,.176,2.238C31.328-469,31.3-469,38.858-469h6.715v3.2H31.712l-.368.4c-.352.368-.4.592-.448,2a6.016,6.016,0,0,1-.192,1.6c-.064,0-.352-.048-.623-.1l-.5-.1V-488.5H45.573Zm0,5.036v.719H33.423v-1.439h12.15Zm0,9.432v.719H33.423v-1.439h12.15Zm0,9.592v.719H33.423V-463.4h12.15Zm-16.211,3.213a21.852,21.852,0,0,1,2.718.687,32.467,32.467,0,0,1,5.42,2.446,23.727,23.727,0,0,0,5.915,2.11c.7.144,4.125.576,7.594.975s6.683.831,7.13.959a4.99,4.99,0,0,1,3.181,3.645c.08.368.048.591-.048.591s-4.956-.464-10.823-1.039c-5.851-.576-10.823-1.039-11.047-1.039a1.425,1.425,0,0,0-1.183,1.183,1.525,1.525,0,0,0,.368.831l.368.416,12.038,1.183c6.619.639,13.125,1.215,14.468,1.279l2.43.112,8.185-5.452c6-4.013,8.329-5.484,8.777-5.547a2.6,2.6,0,0,1,2.318,1.135,2.543,2.543,0,0,1,.032,2.35c-.24.448-12.054,11.255-15.891,14.548a11.192,11.192,0,0,1-3.677,1.839c-.4.1-6.251.975-13.029,1.95-11,1.583-12.406,1.759-13.189,1.615-.48-.1-4.62-1.583-9.192-3.325L23.91-439.18l-.048-10.376-.032-10.376,2.11.128A31.69,31.69,0,0,1,29.362-459.467Zm16.211,1.6c0,1.375-.032,1.519-.272,1.455-.16-.048-.576-.128-.927-.192a23.27,23.27,0,0,1-4.988-1.6c-2.686-1.247-2.782-1.2,2-1.2h4.189Zm9.113.464v1.839H51.967v-3.677h2.718Zm9.113,0v1.839H61.08v-3.677H63.8Z" fill="#41bdcc"/>
    <path id="Path_147" data-name="Path 147" d="M246.946-454.776c-.8.352-.9.8-.831,4.4l.048,3.245.448.384c.432.368.512.384,3.325.384h2.894l.464-.464.464-.464V-450.6a21.845,21.845,0,0,0-.16-3.613c-.352-.655-.959-.783-3.629-.783A11.8,11.8,0,0,0,246.946-454.776Zm4.412,4.173v1.839h-2.718v-3.677h2.718Z" transform="translate(-196.673 -47.888)" fill="#41bdcc"/>
    <path id="Path_148" data-name="Path 148" d="M303.862-454.573c-.751.336-.863.879-.863,4.2,0,4.3-.1,4.189,3.869,4.2,2.8,0,2.83,0,3.309-.416l.5-.416V-450.4c0-3.389,0-3.421-.384-3.869l-.384-.448-2.782-.032A10.7,10.7,0,0,0,303.862-454.573Zm4.412,4.173v1.839h-2.718v-3.677h2.718Z" transform="translate(-244.477 -48.09)" fill="#41bdcc"/>
    <path id="Path_149" data-name="Path 149" d="M361.1-454.625a2.474,2.474,0,0,0-.639.5c-.288.32-.32.624-.368,3.245-.064,3.325,0,3.853.56,4.364.4.368.48.384,3.181.384a15.093,15.093,0,0,0,3.149-.176c.751-.336.831-.751.831-4.237v-3.261l-.448-.432-.432-.448-2.766-.032A20.535,20.535,0,0,0,361.1-454.625Zm4.237,4.253v1.839H362.62v-3.677h2.718Z" transform="translate(-292.428 -48.119)" fill="#41bdcc"/>
    <path id="Path_150" data-name="Path 150" d="M246.636-368.616l-.448.384-.048,3.245a15.523,15.523,0,0,0,.144,3.709c.32.751.927.911,3.661.911,2.574,0,3.341-.16,3.661-.767a18.711,18.711,0,0,0,.176-3.629v-3.309l-.464-.464-.464-.464h-2.894C247.148-369,247.068-368.984,246.636-368.616Zm4.748,3.853v1.839h-2.718V-366.6h2.718Z" transform="translate(-196.699 -120.139)" fill="#41bdcc"/>
    <path id="Path_151" data-name="Path 151" d="M303.751-368.8c-.639.384-.751.943-.751,4.029a21.548,21.548,0,0,0,.176,3.437c.3.879.9,1.023,4,.959l2.734-.048.384-.448c.384-.448.384-.48.384-3.837-.016-3.549-.032-3.709-.751-4.077A26.561,26.561,0,0,0,303.751-368.8Zm4.524,4.061v1.839h-2.718v-3.677h2.718Z" transform="translate(-244.478 -120.159)" fill="#41bdcc"/>
    <path id="Path_152" data-name="Path 152" d="M360.654-368.616c-.56.528-.623,1.039-.56,4.38l.048,2.91.448.432.432.448h5.915l.432-.448.448-.432v-3.261c0-3.485-.08-3.9-.831-4.237a15.1,15.1,0,0,0-3.149-.176C361.134-369,361.054-368.984,360.654-368.616Zm4.684,3.853v1.839H362.62V-366.6h2.718Z" transform="translate(-292.428 -120.139)" fill="#41bdcc"/>
    <path id="Path_153" data-name="Path 153" d="M246.416-282.5l-.416.5v6.523l.464.512.464.528,2.27.048c2.83.08,3.533-.016,4.061-.56l.416-.416v-6.778l-.416-.432-.432-.416h-6Zm4.86,3.741v1.839h-2.718V-280.6h2.718Z" transform="translate(-196.591 -192.39)" fill="#41bdcc"/>
    <path id="Path_154" data-name="Path 154" d="M303.884-282.584c-.384.4-.384.432-.384,3.837v3.421l.448.432c.432.448.48.448,2.686.5,2.766.08,3.581-.032,4.077-.528.384-.384.384-.416.384-3.8,0-3.405,0-3.421-.4-3.853L310.31-283h-6.043Zm4.812,3.821v1.839h-2.718V-280.6H308.7Z" transform="translate(-244.898 -192.39)" fill="#41bdcc"/>
    <path id="Path_155" data-name="Path 155" d="M360.751-282.824c-.608.352-.751,1.1-.751,4.093,0,4.269.08,4.348,3.917,4.348,3.821,0,3.917-.1,3.917-4.221a24.856,24.856,0,0,0-.16-3.309c-.288-1.023-.512-1.087-3.757-1.087A15.887,15.887,0,0,0,360.751-282.824Zm4.524,4.061v1.839h-2.718V-280.6h2.718Z" transform="translate(-292.365 -192.39)" fill="#41bdcc"/>
    <path id="Path_156" data-name="Path 156" d="M361.1-197.625a2.474,2.474,0,0,0-.639.5c-.288.32-.32.623-.368,3.245-.064,3.325,0,3.853.56,4.364.4.368.48.384,3.325.384h2.91l.416-.416c.544-.544.624-1.2.56-4.508l-.048-2.75-.448-.432-.432-.448-2.766-.032A20.535,20.535,0,0,0,361.1-197.625Zm4.237,4.253v1.839H362.62v-3.677h2.718Z" transform="translate(-292.428 -264.032)" fill="#41bdcc"/>
  </g>
</svg>
