<svg xmlns="http://www.w3.org/2000/svg" width="54.128" height="71.339" viewBox="0 0 54.128 71.339">
  <g id="done" transform="translate(0 504.67)">
    <path id="Path_157" data-name="Path 157" d="M353.632-504.572a12.463,12.463,0,0,0-10.254,9.8,15.906,15.906,0,0,0,.132,5.655,16.217,16.217,0,0,0,2.432,4.717,13,13,0,0,0,6.153,4,14.67,14.67,0,0,0,5.874.22,12.469,12.469,0,0,0,9.61-9.258,11.862,11.862,0,0,0,.234-2.974,9.073,9.073,0,0,0-.4-3.3,12.225,12.225,0,0,0-8.511-8.5A14.629,14.629,0,0,0,353.632-504.572Zm8.511,7.823c.85.835,1.084,1.172,1.084,1.494,0,.366-.6,1.025-3.838,4.263-2.124,2.095-4,3.9-4.175,3.985a2.327,2.327,0,0,1-1.773-.044,26.818,26.818,0,0,1-2.476-2.315c-1.524-1.538-2.095-2.212-2.095-2.476a6.8,6.8,0,0,1,2.608-2.622c.249,0,.732.366,1.553,1.172a9.382,9.382,0,0,0,1.333,1.172c.073,0,1.436-1.289,3-2.857,2.359-2.344,2.944-2.857,3.281-2.857S361.308-497.584,362.143-496.749Z" transform="translate(-313.687)" fill="#41bdcc"/>
    <g id="Group_76" data-name="Group 76" transform="translate(0 -486.334)">
      <path id="Path_158" data-name="Path 158" d="M11.5-374.634l-.366.352v13.433l-5.567,5.318C.059-350.272,0-350.214,0-349.628c0,.527.1.689,1.069,1.67S2.2-346.874,2.7-346.874s.689-.117,1.611-1.011c.571-.542,5.874-5.625,11.793-11.28l10.767-10.284.732.718c1.6,1.524,21.183,20.216,22.018,21.007.776.732.981.85,1.465.85s.659-.1,1.553-1.055c1.011-1.084,1.216-1.48,1.084-2.066-.117-.41-24.977-24.23-25.783-24.684a2.025,2.025,0,0,0-2.036-.059c-.293.132-2.7,2.329-5.347,4.864l-4.8,4.6-.044-4.556-.029-4.571-.381-.293c-.337-.264-.6-.308-1.919-.308C11.954-375,11.822-374.971,11.5-374.634Z" transform="translate(0 375)" fill="#41bdcc"/>
      <path id="Path_159" data-name="Path 159" d="M55.064-307.22,45-297.6l.029,12.247c.044,13.609-.015,12.774,1.025,13.521l.483.337L65-271.446c20.626.044,19.337.1,20.069-.967l.366-.542v-24.757l-9.976-9.522c-5.479-5.244-10.049-9.537-10.137-9.566S60.616-312.508,55.064-307.22Z" transform="translate(-38.408 324.43)" fill="#41bdcc"/>
    </g>
  </g>
</svg>
