<svg xmlns="http://www.w3.org/2000/svg" width="57.32" height="68.106" viewBox="0 0 57.32 68.106">
  <g id="Group_78" data-name="Group 78" transform="translate(-6983.528 -2654)">
    <g id="Group_76" data-name="Group 76" transform="translate(6983.528 2670.71)">
      <path id="Path_158" data-name="Path 158" d="M11.151-374.645l-.355.341v13.026l-5.4,5.156C.057-351.022,0-350.965,0-350.4c0,.511.1.668,1.037,1.619s1.094,1.051,1.577,1.051.668-.114,1.563-.98c.554-.526,5.7-5.455,11.435-10.938l10.441-9.972.71.7c1.548,1.477,20.54,19.6,21.35,20.37.753.71.952.824,1.42.824s.639-.1,1.506-1.023c.98-1.051,1.179-1.435,1.051-2-.114-.4-24.219-23.495-25-23.935a1.963,1.963,0,0,0-1.974-.057c-.284.128-2.614,2.259-5.185,4.716l-4.659,4.46-.043-4.418-.028-4.432-.369-.284c-.327-.256-.582-.3-1.861-.3C11.591-375,11.463-374.972,11.151-374.645Z" transform="translate(0 375)" fill="#41bdcc"/>
      <path id="Path_159" data-name="Path 159" d="M54.759-307.51,45-298.178l.028,11.875c.043,13.2-.014,12.387.994,13.111l.469.327,17.9.043c20,.043,18.751.1,19.461-.938l.355-.526v-24.006l-9.674-9.233c-5.313-5.085-9.745-9.247-9.83-9.276S60.142-312.638,54.759-307.51Z" transform="translate(-38.608 324.199)" fill="#41bdcc"/>
    </g>
    <g id="cross-circle-svgrepo-com" transform="translate(7012.289 2654)">
      <rect id="Rectangle_252" data-name="Rectangle 252" width="28.559" height="28.627" transform="translate(0 0)" fill="none"/>
      <g id="Group_77" data-name="Group 77" transform="translate(2.573 2.79)">
        <path id="Path_161" data-name="Path 161" d="M5.224,5.293a11.361,11.361,0,0,1,16.047,0,11.463,11.463,0,0,1,0,16.106,11.224,11.224,0,0,1-15.934,0A11.463,11.463,0,0,1,5.224,5.293Zm4.859,12.817,3.164-3.176,3.164,3.176,1.582-1.588L14.83,13.346l3.164-3.176L16.412,8.582l-3.164,3.176L10.084,8.582,8.5,10.17l3.164,3.176L8.5,16.522l1.582,1.588Z" transform="translate(-1.975 -1.975)" fill="#41bdcc"/>
      </g>
    </g>
  </g>
</svg>
