<svg xmlns="http://www.w3.org/2000/svg" width="60.619" height="60.632" viewBox="0 0 60.619 60.632">
  <g id="location" transform="translate(-0.056 511.925)">
    <path id="Path_143" data-name="Path 143" d="M130.268-511.756a16.8,16.8,0,0,0-9.3,5.057,16.762,16.762,0,0,0-3.612,6.135,13.893,13.893,0,0,0-.758,4.915,9.423,9.423,0,0,0,.332,3.079c1.255,4.88,4.88,12.4,10.624,22.054,1.907,3.2,2.167,3.565,2.925,4.086a4.7,4.7,0,0,0,6.147-.817c.2-.249,1.113-1.729,2.049-3.293,4.892-8.208,8.386-15.184,9.937-19.815a13.59,13.59,0,0,0,1.007-5.413,15.783,15.783,0,0,0-2.76-8.907,16.7,16.7,0,0,0-10.956-7.083A23.623,23.623,0,0,0,130.268-511.756Zm4.655,8.907a6.79,6.79,0,0,1,4.524,4.607,8.03,8.03,0,0,1,.047,3.186,6.665,6.665,0,0,1-3.506,4.37,6.579,6.579,0,0,1-9.262-4.37,8.03,8.03,0,0,1,.047-3.186,6.739,6.739,0,0,1,5.306-4.809A7.306,7.306,0,0,1,134.923-502.85Z" transform="translate(-102.741)" fill="#41bdcc"/>
    <path id="Path_144" data-name="Path 144" d="M95.672-171.642a35.272,35.272,0,0,0-3.849,1.042c-2.736.924-4.465,2.144-5.128,3.589a3.928,3.928,0,0,0,.012,2.89c.829,1.694,2.973,3.008,6.4,3.956,9.653,2.641,25.014,1.836,30.9-1.623a6.856,6.856,0,0,0,2.3-2.3,3.849,3.849,0,0,0,.024-2.925c-.876-1.919-3.672-3.435-8.1-4.43-1.208-.261-1.457-.284-1.575-.154-.2.225-1.848,3.056-1.848,3.174a2.389,2.389,0,0,0,.924.249,32.143,32.143,0,0,1,4.939,1.291,6.2,6.2,0,0,1,2.191,1.3c0,.355-1.978,1.291-3.909,1.848a43.236,43.236,0,0,1-12.436,1.409,43.27,43.27,0,0,1-12.46-1.421c-1.907-.545-3.885-1.48-3.885-1.836a6.417,6.417,0,0,1,2.345-1.35,28.872,28.872,0,0,1,4.8-1.244,1.883,1.883,0,0,0,.912-.284,18.473,18.473,0,0,0-.936-1.67C96.347-171.677,96.24-171.784,95.672-171.642Z" transform="translate(-76.139 -299.94)" fill="#41bdcc"/>
    <path id="Path_145" data-name="Path 145" d="M4.585-154.428Q1.05-152.243.262-149.7a4.946,4.946,0,0,0-.19,1.966,3.709,3.709,0,0,0,.5,2.085c1.492,3.02,5.78,5.5,12.4,7.166a70.1,70.1,0,0,0,17.375,1.9,69.051,69.051,0,0,0,17.138-1.836c5.318-1.3,8.859-2.949,11.086-5.152a6.249,6.249,0,0,0,1.6-2.073,3.93,3.93,0,0,0,.5-2.1,5.869,5.869,0,0,0-1.848-4.643,17.129,17.129,0,0,0-2.925-2.2,1.786,1.786,0,0,0-1.374-.332,1.362,1.362,0,0,0-1.137.474,1.346,1.346,0,0,0-.486,1.078c-.083.983.166,1.374,1.315,2.108,2.618,1.658,3.34,2.9,2.475,4.264-1.623,2.523-7.592,4.88-15.3,6.029a82.3,82.3,0,0,1-21.982,0C11.692-142.1,5.675-144.467,4.052-147c-.865-1.362-.142-2.606,2.475-4.264,1.149-.734,1.4-1.125,1.315-2.108a1.346,1.346,0,0,0-.486-1.078c-.391-.391-.5-.426-1.173-.462C5.474-154.961,5.391-154.925,4.585-154.428Z" transform="translate(0 -314.702)" fill="#41bdcc"/>
  </g>
</svg>
