<svg xmlns="http://www.w3.org/2000/svg" width="63.501" height="62.836" viewBox="0 0 63.501 62.836">
  <g id="urban" transform="translate(-67.95 427.05)">
    <path id="Path_140" data-name="Path 140" d="M79.482-420.593v6.407H68v49.922h63.4v-26.209c0-14.411-.017-26.209-.033-26.209-.033,0-4.46,1.631-9.868,3.628l-9.818,3.628-.05,2.945-.033,2.945h-7.488V-416.6L98.9-421.808,93.71-427H79.482Zm9.652,2.247v1.664H85.806v-3.328h3.328Zm8.32,5.741v1.581H94.292v-3.162h3.162Zm-20.468,6.157v1.581H73.824v-3.162h3.162Zm7.655,0v1.581H81.479v-3.162h3.162Zm12.813.832v1.581H94.292V-407.2h3.162Zm27.457,2.163v1.581h-3.328v-3.162h3.328Zm-47.926,3.994v1.581H73.824v-3.162h3.162Zm7.655,0v1.581H81.479v-3.162h3.162Zm40.271,3v1.581h-3.328v-3.162h3.328Zm-24.628.5v1.581H97.121v-3.162h3.162Zm7.655,0v1.581h-3.162v-3.162h3.162Zm-30.952,3.578v1.664H73.824v-3.328h3.162Zm7.655,0v1.664H81.479v-3.328h3.162Zm40.271,2.912v1.581h-3.328v-3.162h3.328Zm-24.628.5v1.581H97.121v-3.162h3.162Zm7.655,0v1.581h-3.162v-3.162h3.162ZM76.986-385.4v1.664H73.824v-3.328h3.162Zm7.655,0v1.664H81.479v-3.328h3.162Zm15.642,3.495v1.664H97.121v-3.328h3.162Zm7.655,0v1.664h-3.162v-3.328h3.162Zm-30.952,3.495v1.664H73.824v-3.328h3.162Zm30.952,3.495v1.664h-3.162v-3.328h3.162Z" fill="#41bdcc" stroke="#000" stroke-width="0.1"/>
  </g>
</svg>
