<svg xmlns="http://www.w3.org/2000/svg" width="32" height="32" viewBox="0 0 32 32">
  <g id="Group_81" data-name="Group 81" transform="translate(-83 -683)">
    <rect id="Rectangle_255" data-name="Rectangle 255" width="32" height="32" transform="translate(83 683)" fill="#fff"/>
    <g id="listing_1_" data-name="listing (1)" transform="translate(78.325 1190.927)">
      <path id="Path_214" data-name="Path 214" d="M12.277-503.87a5.416,5.416,0,0,0-4.233,3.938,4.241,4.241,0,0,0-.115,1.349,4.113,4.113,0,0,0,.115,1.334,5.385,5.385,0,0,0,2.724,3.418l.285.145v1.834l-.34.135a4.642,4.642,0,0,0-2.734,3.344,19.78,19.78,0,0,0,0,3.608,6.827,6.827,0,0,0,4.583,5.3c1,.335.72.325,8.4.325H27.9v-.8l-2.654-.01-2.654-.015-.37-.925-.37-.925-.975-.975-.975-.975v-1.419a8.773,8.773,0,0,0-.1-1.909,6.138,6.138,0,0,0-4.233-4.678l-.465-.14v-.825h.39A3.8,3.8,0,0,0,19-495.564a9.232,9.232,0,0,0,.1-2.269v-1.884l.13-.12a2.523,2.523,0,0,0,.38-2.894,2.5,2.5,0,0,0-1.364-1.1,12.933,12.933,0,0,0-3.009-.09C13.747-503.92,12.417-503.9,12.277-503.87Zm5.418.79a1.52,1.52,0,0,1,.9.45,1.256,1.256,0,0,1,.425,1.1,1.256,1.256,0,0,1-.425,1.1c-.46.46-.765.51-2.884.49-1.5-.015-1.6-.02-1.764-.12a.753.753,0,0,1,.35-1.419.759.759,0,0,1,.75.635c0,.11.02.115.425.115H15.9v-.175a1.575,1.575,0,0,0-.45-.975,1.521,1.521,0,0,0-1.149-.45,1.545,1.545,0,0,0-1.594,1.364c-.03.24-.03.245-.295.335a2.066,2.066,0,0,0-1.289,1.434c-.01.035-.095.065-.19.065a1.586,1.586,0,0,0-1.324.975,1.912,1.912,0,0,0,0,1.249,1.586,1.586,0,0,0,1.319.975H11.1v1.309l-.19-.115a4.615,4.615,0,0,1-2.094-2.969,5.4,5.4,0,0,1,.11-2.174,4.661,4.661,0,0,1,1.694-2.374,4.753,4.753,0,0,1,2.174-.82C13.437-503.135,17.315-503.141,17.695-503.081Zm-4.513,3.493c.485.47.445.46,2.874.445,1.139-.01,2.109-.035,2.164-.06.09-.045.09,0,.065,1.524-.025,1.724-.05,1.894-.345,2.484a3.359,3.359,0,0,1-1.134,1.2,2.745,2.745,0,0,1-1.479.41,2.843,2.843,0,0,1-2-.77l-.33-.3-.3.31-.31.31.31.29a4.036,4.036,0,0,0,1.529.87c.075.03.085.1.085.575v.54l-.16.155a1.308,1.308,0,0,1-1.04.39,1.308,1.308,0,0,1-1.04-.39l-.16-.155v-4.963l-.495-.025a1.523,1.523,0,0,1-.66-.12.763.763,0,0,1,0-1.339,1.514,1.514,0,0,1,.655-.12l.485-.025.035-.325a1.293,1.293,0,0,1,.345-.855,1.527,1.527,0,0,1,.585-.355A2.437,2.437,0,0,1,13.182-499.587Zm2.569,8.806a5.351,5.351,0,0,1,2.564,2.189,6.225,6.225,0,0,1,.785,3.478v.545l-.795-.77-.79-.775-.01-.915,0-.91h-.8v1.584l-.2.03a1.243,1.243,0,0,0-.815.555,1.04,1.04,0,0,0-.17.59c-.035.555.05.7.83,1.5l.67.685-.2.1a3.62,3.62,0,0,0-.475.33l-.28.225h-.61a5.6,5.6,0,0,1-1.9-.24,3.615,3.615,0,0,1-2.209-2.234,6.935,6.935,0,0,1-.225-2.214v-.91h-.8v1.309a4.66,4.66,0,0,0,.45,2.664,4.271,4.271,0,0,0,2.024,2,4.118,4.118,0,0,0,2.389.41l1.339.025.315-.3a1.42,1.42,0,0,1,1.065-.46,1.152,1.152,0,0,1,.81,1.984c-.345.325-.4.335-2.114.355-.845.01-1.834-.005-2.2-.035a5.848,5.848,0,0,1-3.883-1.749c-1.364-1.364-1.874-2.919-1.774-5.428a3.994,3.994,0,0,1,.66-2.384,4.129,4.129,0,0,1,1.754-1.419l.215-.085.22.185a3.667,3.667,0,0,0,.565.345,1.593,1.593,0,0,0,.965.16,1.523,1.523,0,0,0,1-.185,3.313,3.313,0,0,0,.575-.355l.2-.175.25.075C15.261-490.961,15.546-490.861,15.751-490.781Zm1.349,5.468.17.175-.285.285-.285.285-.175-.17a.427.427,0,0,1-.065-.635A.421.421,0,0,1,17.1-485.313Zm2.3,2.3,1.474,1.474-.285.285-.29.285-.195-.19a.7.7,0,0,1-.23-.38,2.312,2.312,0,0,0-.55-1.025,2.3,2.3,0,0,0-1.02-.55c-.15-.025-.27-.115-.585-.43l-.39-.395.27-.275a2.464,2.464,0,0,1,.3-.275C17.915-484.489,18.589-483.824,19.4-483.014Z" transform="translate(0 0)" fill="#4cc1cf"/>
      <path id="Path_215" data-name="Path 215" d="M120-391.6v.4h1.6v-.8H120Z" transform="translate(-106.498 -106.333)" fill="#4cc1cf"/>
      <path id="Path_216" data-name="Path 216" d="M168-391.6v.4h1.6v-.8H168Z" transform="translate(-152.099 -106.333)" fill="#4cc1cf"/>
      <path id="Path_217" data-name="Path 217" d="M128.555-339.715l-.355.185.075.15a2.076,2.076,0,0,0,.74.715,1.253,1.253,0,0,0,.775.135,1.284,1.284,0,0,0,.75-.12,2.057,2.057,0,0,0,.75-.71l.095-.175-.38-.19a2.5,2.5,0,0,0-.385-.17c-.005.01-.07.1-.14.195a.859.859,0,0,1-1.384-.01.743.743,0,0,0-.155-.19C128.925-339.9,128.755-339.815,128.555-339.715Z" transform="translate(-114.288 -155.829)" fill="#4cc1cf"/>
      <path id="Path_218" data-name="Path 218" d="M264.667-471.905a1.5,1.5,0,0,0-.36.26c-.34.36-.315-.195-.315,7.642s-.025,7.282.315,7.642.335.355,2.524.355h1.959v.465c0,.53.07.715.37.955a.71.71,0,0,0,.53.17c.465.03.6-.055,1.449-.91l.675-.68h1.649c1.839,0,1.879-.01,2.209-.355s.315.195.315-7.642.025-7.282-.315-7.642a1.5,1.5,0,0,0-.36-.26c-.19-.09-.44-.095-5.323-.095S264.857-472,264.667-471.905Zm10.22.76c.315.115.3-.285.3,7.142s.015,7.027-.3,7.142a14.456,14.456,0,0,1-1.844.055h-1.679l-.775.775a8.027,8.027,0,0,1-.835.775c-.125,0-.165-.21-.165-.87v-.68h-2.169a21.668,21.668,0,0,1-2.329-.055c-.315-.115-.3.285-.3-7.132,0-4.9.015-6.787.055-6.907.11-.31-.1-.295,5.123-.3C273.393-471.2,274.767-471.185,274.887-471.145Z" transform="translate(-243.294 -30.331)" fill="#4cc1cf"/>
      <path id="Path_219" data-name="Path 219" d="M307.264-429.365l-.64.64-.25-.25-.25-.25-.315.315-.31.31.565.56.56.565.96-.96.965-.965-.3-.3a2.879,2.879,0,0,0-.325-.3C307.909-430,307.614-429.715,307.264-429.365Z" transform="translate(-282.727 -70.232)" fill="#4cc1cf"/>
      <path id="Path_220" data-name="Path 220" d="M376-407.6v.4h4v-.8h-4Z" transform="translate(-349.704 -91.132)" fill="#4cc1cf"/>
      <path id="Path_221" data-name="Path 221" d="M307.264-365.365l-.64.64-.25-.25-.25-.25-.315.315-.31.31.565.56.56.565.96-.96.965-.965-.3-.3a2.875,2.875,0,0,0-.325-.3C307.909-366,307.614-365.715,307.264-365.365Z" transform="translate(-282.727 -131.033)" fill="#4cc1cf"/>
      <path id="Path_222" data-name="Path 222" d="M376-343.6v.4h4v-.8h-4Z" transform="translate(-349.704 -151.934)" fill="#4cc1cf"/>
      <path id="Path_223" data-name="Path 223" d="M307.264-301.365l-.64.64-.25-.25-.25-.25-.315.315-.31.31.565.56.56.565.96-.96.965-.965-.3-.3a2.873,2.873,0,0,0-.325-.3C307.909-302,307.614-301.715,307.264-301.365Z" transform="translate(-282.727 -191.835)" fill="#4cc1cf"/>
      <path id="Path_224" data-name="Path 224" d="M376-279.6v.4h4v-.8h-4Z" transform="translate(-349.704 -212.735)" fill="#4cc1cf"/>
      <path id="Path_225" data-name="Path 225" d="M296.675-231.851a1.157,1.157,0,0,0-.675,1.115,1.136,1.136,0,0,0,1.2,1.189,1.133,1.133,0,0,0,1.2-1.2,1.159,1.159,0,0,0-.71-1.12A1.567,1.567,0,0,0,296.675-231.851Zm.775.855a.4.4,0,0,1,.1.25.4.4,0,0,1-.1.25.4.4,0,0,1-.25.1.4.4,0,0,1-.25-.1.4.4,0,0,1-.1-.25.4.4,0,0,1,.1-.25.4.4,0,0,1,.25-.1A.4.4,0,0,1,297.449-231Z" transform="translate(-273.702 -258.391)" fill="#4cc1cf"/>
      <path id="Path_226" data-name="Path 226" d="M360.675-231.851a1.157,1.157,0,0,0-.675,1.115,1.136,1.136,0,0,0,1.2,1.189,1.133,1.133,0,0,0,1.2-1.2,1.159,1.159,0,0,0-.71-1.12A1.567,1.567,0,0,0,360.675-231.851Zm.775.855a.4.4,0,0,1,.1.25.4.4,0,0,1-.1.25.4.4,0,0,1-.25.1.4.4,0,0,1-.25-.1.4.4,0,0,1-.1-.25.4.4,0,0,1,.1-.25.4.4,0,0,1,.25-.1A.4.4,0,0,1,361.449-231Z" transform="translate(-334.504 -258.391)" fill="#4cc1cf"/>
      <path id="Path_227" data-name="Path 227" d="M424.675-231.851a1.157,1.157,0,0,0-.675,1.115,1.136,1.136,0,0,0,1.2,1.189,1.133,1.133,0,0,0,1.2-1.2,1.159,1.159,0,0,0-.71-1.12A1.567,1.567,0,0,0,424.675-231.851Zm.775.855a.4.4,0,0,1,.1.25.4.4,0,0,1-.1.25.4.4,0,0,1-.25.1.4.4,0,0,1-.25-.1.4.4,0,0,1-.1-.25.4.4,0,0,1,.1-.25.4.4,0,0,1,.25-.1A.4.4,0,0,1,425.449-231Z" transform="translate(-395.305 -258.391)" fill="#4cc1cf"/>
    </g>
  </g>
</svg>
