<svg xmlns="http://www.w3.org/2000/svg" xmlns:xlink="http://www.w3.org/1999/xlink" version="1.1" x="0px" y="0px" viewBox="0 0 1000 1000" enable-background="new 0 0 1000 1000" xml:space="preserve">
<metadata fill="#6bcbd7"> Svg Vector Icons : http://www.onlinewebfonts.com/icon </metadata>
<g><path d="M990,780v210H10V780c16.4,0,31.9-2.6,46.5-7.7c14.6-5.1,25.3-10.1,32.3-15c6.9-4.9,15.5-11.8,25.7-20.5c10.9-9.8,20.3-16.8,28.2-20.8c7.8-4,18.1-6,30.9-6s22.9,2,30.4,6c7.5,4,17,10.9,28.7,20.8c10.6,9.1,19.1,16,25.7,20.8c6.6,4.7,17.1,9.7,31.7,14.8c14.6,5.1,30.3,7.7,47,7.7c16.4,0,31.9-2.6,46.5-7.9c14.6-5.3,25.2-10.2,31.7-14.8c6.6-4.6,15.3-11.4,26.3-20.5c7.7-6.9,13.6-11.8,17.8-14.8c4.2-2.9,9.8-5.7,17-8.2c7.1-2.6,15-3.8,23.8-3.8c12.8,0,23.1,2,30.9,6c7.8,4,17.2,10.9,28.2,20.8c10.2,8.8,18.8,15.6,25.7,20.5c6.9,4.9,17.7,9.9,32.3,15s30.1,7.7,46.5,7.7s31.9-2.6,46.5-7.7c14.6-5.1,25.3-10.1,32.3-15c6.9-4.9,15.5-11.8,25.7-20.5c10.9-9.8,20.3-16.8,28.2-20.8c7.8-4,18.1-6,30.9-6c12.4,0,22.5,2,30.4,6c7.8,4,17.2,10.9,28.2,20.8c10.2,8.8,18.8,15.6,25.7,20.5s17.7,9.9,32.3,15C958.1,777.4,973.6,780,990,780z M990,605v105c-12.8,0-22.9-2-30.4-6c-7.5-4-17-10.9-28.7-20.8c-10.6-9.1-19.1-16-25.7-20.8c-6.6-4.7-17.1-9.7-31.7-14.8c-14.6-5.1-30.1-7.7-46.5-7.7c-16.8,0-32.4,2.6-47,7.7c-14.6,5.1-25.2,10-31.7,14.8c-6.6,4.7-15.1,11.7-25.7,20.8c-8,6.9-14,11.8-18,14.8c-4,2.9-9.7,5.7-17,8.2c-7.3,2.6-15.3,3.8-24.1,3.8c-12.8,0-23.1-2-30.9-6c-7.8-4-17.2-10.9-28.2-20.8c-10.6-9.1-19.1-16-25.7-20.8s-17.1-9.7-31.7-14.8c-14.6-5.1-30.3-7.7-47-7.7c-16.4,0-31.9,2.6-46.5,7.9s-25.2,10.2-31.7,14.8c-6.6,4.6-15.3,11.4-26.2,20.5c-7.7,6.9-13.6,11.8-17.8,14.8c-4.2,2.9-9.8,5.7-17,8.2c-7.1,2.6-15,3.8-23.8,3.8c-12.8,0-23.1-2-30.9-6c-7.8-4-17.2-10.9-28.2-20.8c-10.2-8.8-18.8-15.6-25.7-20.5c-6.9-4.9-17.7-9.9-32.3-15c-14.6-5.1-30.1-7.7-46.5-7.7c-16.8,0-32.4,2.6-47,7.7c-14.6,5.1-25.2,10-31.7,14.8s-15.1,11.7-25.7,20.8C58.1,693,48.7,700,40.9,704c-7.8,4-18.1,6-30.9,6V605c0-29.2,10.2-54,30.6-74.4S85.8,500,115,500h35V255h140v245h140V255h140v245h140V255h140v245h35c29.2,0,54,10.2,74.4,30.6C979.8,551,990,575.8,990,605z M290,132.5c0,28.1-6.6,49.7-19.7,64.8S240.4,220,220,220c-19.3,0-35.8-6.8-49.5-20.5S150,169.3,150,150c0-10.6,1.7-19.9,5.2-27.9c3.5-8,7.7-14.2,12.9-18.6c5.1-4.4,10.8-9.5,17-15.3c6.2-5.8,11.8-11.6,17-17.2c5.1-5.7,9.4-13.8,12.9-24.3c3.5-10.6,5.2-22.8,5.2-36.6c13.9,0,29,13.5,45.4,40.5S290,104.8,290,132.5z M570,132.5c0,28.1-6.6,49.7-19.7,64.8S520.4,220,500,220c-19.3,0-35.8-6.8-49.5-20.5C436.8,185.8,430,169.3,430,150c0-10.6,1.7-19.9,5.2-27.9c3.5-8,7.7-14.2,12.9-18.6c5.1-4.4,10.8-9.5,17-15.3c6.2-5.8,11.8-11.6,17-17.2c5.1-5.7,9.4-13.8,12.9-24.3c3.5-10.6,5.2-22.8,5.2-36.6c13.9,0,29,13.5,45.4,40.5C561.8,77.4,570,104.8,570,132.5z M850,132.5c0,28.1-6.6,49.7-19.7,64.8S800.4,220,780,220c-19.3,0-35.8-6.8-49.5-20.5S710,169.3,710,150c0-10.6,1.7-19.9,5.2-27.9c3.5-8,7.7-14.2,12.9-18.6s10.8-9.5,17-15.3c6.2-5.8,11.8-11.6,17-17.2c5.1-5.7,9.4-13.8,12.9-24.3c3.5-10.6,5.2-22.8,5.2-36.6c13.9,0,29,13.5,45.4,40.5S850,104.8,850,132.5L850,132.5z" fill="#6bcbd7"/></g>
</svg>