<svg xmlns="http://www.w3.org/2000/svg" version="1.0" width="752.000000pt" height="752.000000pt" viewBox="0 0 752.000000 752.000000" preserveAspectRatio="xMidYMid meet">

<g transform="translate(0.000000,752.000000) scale(0.100000,-0.100000)" fill="#36abb9" stroke="none">
<path d="M5009 6017 c-179 -170 -461 -277 -730 -277 l-59 0 0 -462 c0 -508 4 -547 58 -655 139 -274 395 -516 705 -664 l109 -51 84 37 c197 88 416 249 542 398 119 141 210 293 231 387 7 28 11 231 11 528 l0 482 -56 0 c-147 0 -373 53 -501 119 -75 38 -183 114 -255 180 -31 28 -57 51 -59 51 -2 -1 -38 -33 -80 -73z m232 -497 c227 -70 369 -260 369 -495 0 -153 -43 -258 -152 -368 -82 -83 -179 -132 -297 -149 -248 -36 -495 124 -567 367 -25 85 -24 212 4 300 51 169 190 304 359 350 75 21 210 18 284 -5z" fill="#36abb9"/>
<path d="M5138 5103 l-148 -147 -69 67 c-76 74 -98 81 -137 41 -39 -38 -26 -66 79 -171 132 -133 117 -137 333 80 108 107 175 182 179 199 5 21 1 33 -19 52 -14 15 -35 26 -47 26 -16 0 -69 -46 -171 -147z" fill="#36abb9"/>
<path d="M2670 4435 l-1074 -1074 256 -3 c235 -3 258 -5 277 -22 l21 -19 2 -961 3 -961 497 -3 497 -2 3 387 3 388 27 74 c48 130 131 235 248 310 90 58 168 82 289 88 126 7 188 -5 300 -59 140 -67 247 -191 307 -353 17 -44 19 -93 24 -440 l5 -390 498 -3 497 -2 0 956 c0 604 4 962 10 974 18 34 65 40 309 40 l236 0 -259 259 -258 259 -133 -64 c-73 -35 -144 -64 -159 -64 -64 0 -336 143 -496 260 -236 173 -465 481 -514 690 -12 48 -16 123 -16 280 l0 215 -158 158 c-86 86 -159 157 -162 157 -3 0 -489 -484 -1080 -1075z m440 -1390 l0 -245 -250 0 -250 0 0 245 0 245 250 0 250 0 0 -245z m1780 0 l0 -245 -245 0 -245 0 0 245 0 245 245 0 245 0 0 -245z" fill="#36abb9"/>
<path d="M2615 5127 l-160 -82 -3 -305 -2 -305 165 165 165 165 -2 222 -3 221 -160 -81z" fill="#36abb9"/>
</g>
</svg>