<?xml version="1.0" encoding="UTF-8"?>
<svg xmlns="http://www.w3.org/2000/svg" xmlns:xlink="http://www.w3.org/1999/xlink" width="1300px" height="1300px" viewBox="0 0 1300 1300" version="1.1">
<g id="surface1">
<path style=" stroke:none;fill-rule:nonzero;fill:rgb(21.176471%,67.058824%,72.54902%);fill-opacity:1;" d="M 865.917969 259.828125 C 834.972656 289.214844 786.222656 307.710938 739.722656 307.710938 L 729.519531 307.710938 L 729.519531 387.578125 C 729.519531 475.398438 730.210938 482.140625 739.546875 500.8125 C 763.578125 548.179688 807.832031 590.011719 861.421875 615.597656 L 880.265625 624.414062 L 894.789062 618.019531 C 928.84375 602.804688 966.703125 574.972656 988.484375 549.214844 C 1009.054688 524.839844 1024.789062 498.5625 1028.417969 482.3125 C 1029.628906 477.472656 1030.320312 442.378906 1030.320312 391.039062 L 1030.320312 307.710938 L 1020.636719 307.710938 C 995.226562 307.710938 956.15625 298.550781 934.027344 287.140625 C 921.0625 280.570312 902.394531 267.433594 889.945312 256.023438 C 884.585938 251.183594 880.09375 247.207031 879.746094 247.207031 C 879.402344 247.378906 873.179688 252.914062 865.917969 259.828125 Z M 906.023438 345.746094 C 945.265625 357.847656 969.8125 390.691406 969.8125 431.316406 C 969.8125 457.765625 962.378906 475.917969 943.539062 494.933594 C 929.363281 509.28125 912.59375 517.753906 892.195312 520.691406 C 849.320312 526.914062 806.621094 499.253906 794.175781 457.246094 C 789.855469 442.554688 790.027344 420.597656 794.867188 405.386719 C 803.683594 376.171875 827.710938 352.832031 856.929688 344.878906 C 869.894531 341.25 893.230469 341.769531 906.023438 345.746094 Z M 906.023438 345.746094 "/>
<path style=" stroke:none;fill-rule:nonzero;fill:rgb(21.176471%,67.058824%,72.54902%);fill-opacity:1;" d="M 888.21875 417.832031 L 862.632812 443.246094 L 850.703125 431.664062 C 837.566406 418.871094 833.761719 417.660156 827.019531 424.574219 C 820.277344 431.144531 822.527344 435.984375 840.679688 454.136719 C 863.496094 477.128906 860.902344 477.820312 898.246094 440.304688 C 916.914062 421.808594 928.496094 408.84375 929.1875 405.902344 C 930.054688 402.273438 929.363281 400.199219 925.902344 396.914062 C 923.484375 394.320312 919.855469 392.421875 917.777344 392.421875 C 915.011719 392.421875 905.851562 400.371094 888.21875 417.832031 Z M 888.21875 417.832031 "/>
<path style=" stroke:none;fill-rule:nonzero;fill:rgb(21.176471%,67.058824%,72.54902%);fill-opacity:1;" d="M 461.570312 533.3125 L 275.902344 718.976562 L 320.160156 719.496094 C 360.785156 720.011719 364.761719 720.359375 368.046875 723.296875 L 371.675781 726.582031 L 372.019531 892.710938 L 372.539062 1058.84375 L 458.457031 1059.363281 L 544.375 1059.707031 L 544.894531 992.804688 L 545.414062 925.730469 L 550.078125 912.9375 C 558.378906 890.464844 572.726562 872.3125 592.953125 859.347656 C 608.511719 849.320312 621.996094 845.171875 642.914062 844.136719 C 664.695312 842.925781 675.414062 845 694.773438 854.335938 C 718.976562 865.917969 737.472656 887.355469 747.847656 915.359375 C 750.785156 922.964844 751.128906 931.4375 751.996094 991.421875 L 752.859375 1058.84375 L 838.949219 1059.363281 L 924.867188 1059.707031 L 924.867188 894.441406 C 924.867188 790.027344 925.558594 728.136719 926.597656 726.0625 C 929.707031 720.1875 937.832031 719.148438 980.011719 719.148438 L 1020.8125 719.148438 L 976.039062 674.375 L 931.4375 629.601562 L 908.445312 640.664062 C 895.824219 646.714844 883.550781 651.730469 880.957031 651.730469 C 869.894531 651.730469 822.871094 627.007812 795.210938 606.78125 C 754.414062 576.875 714.828125 523.628906 706.355469 487.5 C 704.28125 479.203125 703.589844 466.238281 703.589844 439.097656 L 703.589844 401.929688 L 676.277344 374.613281 C 661.410156 359.746094 648.789062 347.472656 648.269531 347.472656 C 647.753906 347.472656 563.738281 431.144531 461.570312 533.3125 Z M 537.632812 773.605469 L 537.632812 815.957031 L 451.195312 815.957031 L 451.195312 731.25 L 537.632812 731.25 Z M 845.347656 773.605469 L 845.347656 815.957031 L 760.636719 815.957031 L 760.636719 731.25 L 845.347656 731.25 Z M 845.347656 773.605469 "/>
<path style=" stroke:none;fill-rule:nonzero;fill:rgb(21.176471%,67.058824%,72.54902%);fill-opacity:1;" d="M 452.0625 413.683594 L 424.402344 427.859375 L 423.882812 480.585938 L 423.539062 533.3125 L 452.0625 504.789062 L 480.585938 476.261719 L 480.238281 437.886719 L 479.722656 399.679688 Z M 452.0625 413.683594 "/>
</g>
</svg>
