<svg xmlns="http://www.w3.org/2000/svg" xmlns:xlink="http://www.w3.org/1999/xlink" width="37.534" height="36.108" viewBox="0 0 37.534 36.108">
  <defs>
    <clipPath id="clip-path">
      <rect width="35.519" height="34.44" fill="none"/>
    </clipPath>
  </defs>
  <g id="Group_82" data-name="Group 82" transform="translate(-186.466 -609.892)">
    <rect id="Rectangle_256" data-name="Rectangle 256" width="32" height="32" transform="translate(192 614)" fill="#fff"/>
    <g id="video-call" transform="translate(186.466 609.892)" clip-path="url(#clip-path)">
      <g id="video-call-2" data-name="video-call" transform="translate(-15.975 495.723)">
        <path id="Path_198" data-name="Path 198" d="M17.4-495.66a2.144,2.144,0,0,0-1.234,1.1l-.138.282v11.018l.149.307a2.312,2.312,0,0,0,.978.979l.307.149,2.571.026,2.576.026,1.152.81c.635.451,1.152.82,1.152.83a1.186,1.186,0,0,1-.225.128,1.775,1.775,0,0,0-.758.758c-.118.241-.118.246-.133,2.7a14.123,14.123,0,0,0,.067,2.69c.041.123.077.236.077.246s-.4.015-.9.015h-.9v-.82h.307c.512,0,.512-.005.512-1.23s0-1.23-.512-1.23h-.307v-.717c0-.651-.01-.728-.1-.82s-.169-.1-2.008-.1c-1.751,0-1.926.01-2.115.1a1.322,1.322,0,0,0-.609.63,1.624,1.624,0,0,0,.015,1.045,1.51,1.51,0,0,0,.645.615c.092.02.1.067.1.482,0,.436-.005.456-.118.487a1.416,1.416,0,0,0-.65.666,1.307,1.307,0,0,0-.067.559l.015.338h-.527c-.62,0-.727.061-.727.41a.419.419,0,0,0,.1.307c.1.1.169.1,12.188.1s12.086,0,12.188-.1a.508.508,0,0,0,0-.615c-.1-.1-.169-.1-2.433-.1a14.241,14.241,0,0,1-2.509-.072.366.366,0,0,1-.21-.471c.061-.231.282-.277,1.285-.277,1.168,0,1.1.051,1.1-.922v-.717h.819v.717c0,.651.01.728.1.82a.507.507,0,0,0,.62-.005c.1-.1.1-.149.087-1.727l-.015-1.625-.149-.307a2.272,2.272,0,0,0-.978-.974,1.553,1.553,0,0,0-.8-.169,1.548,1.548,0,0,1-.5-.067.045.045,0,0,1,.041-.046,3.335,3.335,0,0,0,.758-.8,3.294,3.294,0,0,0,.3-.646,4.615,4.615,0,0,0,.128-1.773c0-1.681.051-1.563-.722-1.614a7.365,7.365,0,0,1-.865-.113,4.3,4.3,0,0,1-1.577-.815c-.271-.236-.358-.282-.517-.282-.246,0-.333.072-.461.364a1.365,1.365,0,0,1-1.147.84.737.737,0,0,0-.348.133.5.5,0,0,0,.01.615c.1.1.154.108.512.087a1.987,1.987,0,0,0,1.337-.625l.256-.266.338.22a4.6,4.6,0,0,0,2.141.682H37.3v.753a4.121,4.121,0,0,1-.23,1.742,2.382,2.382,0,0,1-.983.979,1.522,1.522,0,0,1-.835.138,1.522,1.522,0,0,1-.835-.138,2.382,2.382,0,0,1-.983-.979,3.555,3.555,0,0,1-.23-1.23c0-.313-.123-.446-.41-.446-.353,0-.41.108-.41.774a2.748,2.748,0,0,0,.43,1.6,3.335,3.335,0,0,0,.758.8.047.047,0,0,1,.041.051c0,.031-.169.051-.41.051a1.893,1.893,0,0,0-1.081.287l-.189.118-.036-.138a1.233,1.233,0,0,0-.169-.343l-.138-.2-.015-1.553c-.01-.851.005-1.783.031-2.075a3.649,3.649,0,0,1,1.019-2.3c.3-.318.353-.354.527-.354a5.353,5.353,0,0,0,1.2-.231,7.384,7.384,0,0,0,.727-.318c.538-.266.64-.266,1.347-.031a3.735,3.735,0,0,1,2.279,2.27,9.469,9.469,0,0,1,.23,3.008c0,1.583.005,1.66.1,1.758a.507.507,0,0,0,.615,0c.1-.1.1-.169.1-2.168,0-2.383-.026-2.552-.456-3.444a4.444,4.444,0,0,0-1.173-1.486,5.048,5.048,0,0,0-1.475-.8.8.8,0,0,1-.225-.077,4.513,4.513,0,0,1,.282-.395,5.6,5.6,0,0,0,.855-1.7,3.911,3.911,0,0,0,.118-1.307,3.892,3.892,0,0,0-.118-1.307,5.693,5.693,0,0,0-.671-1.45c-.143-.195-.179-.215-.384-.215-.184,0-.246.026-.333.133a.483.483,0,0,0-.108.246,3.6,3.6,0,0,0,.3.7,3.532,3.532,0,0,1,.456,2.106,4.035,4.035,0,0,1-.128.943,4.125,4.125,0,0,1-3.457,2.89,4.06,4.06,0,0,1-3.319-1.174,4.049,4.049,0,0,1-1.173-3.321,4.1,4.1,0,0,1,2.571-3.346,3.988,3.988,0,0,1,3.37.215,3.463,3.463,0,0,0,.707.3.441.441,0,0,0,.369-.441c0-.251-.195-.425-.789-.712a3.928,3.928,0,0,0-2.182-.461,3.832,3.832,0,0,0-1.3.118A5.021,5.021,0,0,0,29.4-494.4l-.323.3-.061-.226a2.035,2.035,0,0,0-1.086-1.245l-.282-.138-5.019-.01C18.566-495.727,17.572-495.716,17.4-495.66Zm10.15.876a1.365,1.365,0,0,1,.727,1.348,1.829,1.829,0,0,1-.128.953,4.388,4.388,0,0,0-.251,1.891,4.431,4.431,0,0,0,.809,2.547,5.083,5.083,0,0,0,2.837,2.009l.266.056-.2.256a5.23,5.23,0,0,0-.758,1.619,9.121,9.121,0,0,0-.1,2.193v1.753l-2.084-.01-2.084-.015-.195-.769c-.1-.425-.195-.784-.195-.8a4.475,4.475,0,0,1,.732-.051c.681-.015.748-.026,1.034-.164a2.312,2.312,0,0,0,.978-.979l.149-.307.015-1.64a12.932,12.932,0,0,0-.041-1.835,1.362,1.362,0,0,0-.64-.707c-.179-.082-.353-.1-1.347-.1-1.26,0-1.378.021-1.7.323a1.153,1.153,0,0,0-.364.943v.374h-.394l-.026-.256a1.752,1.752,0,0,0-.149-.492l-.123-.241.307-.313a2.746,2.746,0,0,0,.794-2.034,3.444,3.444,0,0,0-1.075-2.557,3.425,3.425,0,0,0-2.607-1.076,3.629,3.629,0,0,0-2.914,1.414,4.074,4.074,0,0,0-.819,2.414,2.274,2.274,0,0,1-.538,1.435.934.934,0,0,0-.215.338.439.439,0,0,0,.23.5c.241.1.435.021.671-.272a3.158,3.158,0,0,0,.737-2.009,3.038,3.038,0,0,1,.522-1.676,2.8,2.8,0,0,1,1.536-1.148,1.9,1.9,0,0,1,.912-.113,2.5,2.5,0,0,1,1.475.487,2.722,2.722,0,0,1,1.209,2.4,1.532,1.532,0,0,1-.189.748c-.2.4-.712.922-.876.876-.1-.026-.1-.031.02-.215a2.205,2.205,0,0,0,.282-1.4v-.728l-.5-.5c-.466-.466-.517-.5-.707-.5a.7.7,0,0,0-.353.108,4.076,4.076,0,0,1-1.839.661.853.853,0,0,0-.645.205,4.041,4.041,0,0,0-.051.789,2.164,2.164,0,0,0,.282,1.363l.118.185-.251.087a1.647,1.647,0,0,0-.86.881,3.253,3.253,0,0,0-.108,1.281v1h-.512c-.446,0-.527.015-.615.1a.508.508,0,0,0,0,.615c.1.1.169.1,5.275.1h5.178l-.077.143a1.421,1.421,0,0,1-.62.553,3.623,3.623,0,0,1-1.168.118c-.876.026-.973.041-1.04.128-.108.149-.087.395.082,1.056a4.993,4.993,0,0,1,.133.6c-.01.01-.579-.379-1.265-.866l-1.25-.887-2.586-.026c-2.494-.026-2.6-.031-2.817-.133a1.278,1.278,0,0,1-.635-.635c-.108-.231-.108-.256-.108-5.381s0-5.15.108-5.381a1.229,1.229,0,0,1,.917-.723c.113-.021,2.289-.031,4.84-.026l4.635.005Zm-4.6,5.842a2.449,2.449,0,0,1-.113.615,1.193,1.193,0,0,1-2.182.046,2.221,2.221,0,0,1-.128-.548l-.036-.338.277-.036a5.7,5.7,0,0,0,1.454-.477l.256-.149.251.236.246.236Zm5.034,2.28c.271.1.307.261.307,1.4v1H25.833v-.994c0-1.117.036-1.286.277-1.394A6.942,6.942,0,0,1,27.984-486.661Zm-7.477.123a1.175,1.175,0,0,0,.323.687,1.149,1.149,0,0,0,.906.364,1.149,1.149,0,0,0,.906-.364,1.175,1.175,0,0,0,.323-.687c0-.169.174-.174.41-.01a.847.847,0,0,1,.374.6c.031.174.02.184-.287.384a2.1,2.1,0,0,0-.886,1.24,4.827,4.827,0,0,1-1.46.067H19.677l.02-.912c.015-1.015.056-1.153.4-1.378C20.333-486.713,20.507-486.708,20.507-486.538Zm4.507,1.87v.41H23.472l.077-.143a1.713,1.713,0,0,1,.533-.518,2.145,2.145,0,0,1,.743-.154l.189-.005Zm5.449,5.381a.84.84,0,0,1,.568.415c.1.169.1.282.118,2.721l.015,2.552H28.332c-1.557,0-2.924-.026-3.032-.051a.84.84,0,0,1-.568-.415c-.1-.169-.1-.266-.1-2.4s.005-2.234.1-2.4a.857.857,0,0,1,.543-.415C25.515-479.344,30.216-479.349,30.462-479.287Zm4.793.359a3.577,3.577,0,0,0,.625-.046l.189-.046-.031.164a.8.8,0,0,1-.784.7.8.8,0,0,1-.784-.7l-.031-.164.189.046A3.577,3.577,0,0,0,35.256-478.929Zm-1.567.548a1.89,1.89,0,0,0,.215.41,1.525,1.525,0,0,0,1.352.682,1.548,1.548,0,0,0,.988-.307,1.739,1.739,0,0,0,.574-.779l.036-.159.389.036a1.252,1.252,0,0,1,1.27,1.276l.036.343h-.727c-.963,0-.927-.036-.927.922v.717h-.778c-.871,0-1.06.051-1.342.348l-.149.159-.225-.159a2.936,2.936,0,0,0-.492-.246l-.266-.092-.026-.753c-.02-.666-.036-.758-.123-.825a2.053,2.053,0,0,0-.814-.072h-.717l.036-.343a1.292,1.292,0,0,1,1.444-1.291C33.637-478.519,33.658-478.5,33.689-478.38Zm-12.363,1.092v.41H19.918a6.672,6.672,0,0,1-1.588-.072.366.366,0,0,1-.21-.471c.061-.246.23-.272,1.787-.277h1.419Zm.819,1.64v.41H20.737a6.666,6.666,0,0,1-1.588-.072.366.366,0,0,1-.21-.471c.061-.246.23-.272,1.787-.277h1.419Zm10.652,0v.41h-.819v-.82H32.8Zm-11.472,1.64v.41H19.918a6.672,6.672,0,0,1-1.588-.072.366.366,0,0,1-.21-.471c.061-.246.23-.272,1.787-.277h1.419Zm12.317-.287a1.421,1.421,0,0,1,.62.553l.077.143H31.978v-.835l.732.026A2.958,2.958,0,0,1,33.643-474.3Z" transform="translate(9.976 7)" fill="#41bdcc"/>
        <path id="Path_199" data-name="Path 199" d="M224.09-303.91a.369.369,0,0,0-.09.271.32.32,0,0,0,.361.361.32.32,0,0,0,.361-.361.369.369,0,0,0-.09-.271.37.37,0,0,0-.271-.09A.37.37,0,0,0,224.09-303.91Z" transform="translate(-187.328 -174.938)" fill="#41bdcc"/>
        <path id="Path_200" data-name="Path 200" d="M207.895-135.923c-.185.185-.126.375.3,1.016a5.394,5.394,0,0,0,.46.641.489.489,0,0,0,.5-.023,3.077,3.077,0,0,0,.257-.361,1.651,1.651,0,0,1,.2-.28,1.651,1.651,0,0,1,.2.28,2.535,2.535,0,0,0,.262.361.48.48,0,0,0,.492.023,5.394,5.394,0,0,0,.46-.641c.316-.474.388-.618.388-.754a.32.32,0,0,0-.361-.352c-.212,0-.266.05-.519.442a1.651,1.651,0,0,1-.2.28,1.651,1.651,0,0,1-.2-.28c-.239-.37-.321-.442-.519-.442s-.28.072-.519.442a1.652,1.652,0,0,1-.2.28,1.652,1.652,0,0,1-.2-.28,3.075,3.075,0,0,0-.257-.361A.454.454,0,0,0,207.895-135.923Z" transform="translate(-171.763 -334.235)" fill="#41bdcc"/>
        <path id="Path_201" data-name="Path 201" d="M277.928-436.353c-.533.406-.989.74-1.016.74a4.049,4.049,0,0,1-.447-.609,5.34,5.34,0,0,0-.483-.655c-.2-.1-.352-.045-1.038.411s-.8.578-.74.8c.036.144,1.512,2.347,1.675,2.5a1.149,1.149,0,0,0,.3.19,1.45,1.45,0,0,0,.876,0c.208-.086,3.16-2.3,3.223-2.411.108-.2.054-.325-.451-1a5.956,5.956,0,0,0-.569-.691C279.021-437.161,278.908-437.1,277.928-436.353Zm1.341.533c.068.1.1.185.077.208s-.614.469-1.318.993c-1.3.975-1.417,1.038-1.6.894-.063-.045-1.3-1.864-1.3-1.909a2.543,2.543,0,0,1,.266-.194l.266-.181.438.65c.366.542.465.664.582.691a.476.476,0,0,0,.217.018c.045-.009.533-.361,1.083-.776C279.12-436.281,278.971-436.235,279.269-435.82Z" transform="translate(-234.373 -48.974)" fill="#41bdcc"/>
        <path id="Path_202" data-name="Path 202" d="M368.09-247.91a.37.37,0,0,0-.09.271.32.32,0,0,0,.361.361.32.32,0,0,0,.361-.361.369.369,0,0,0-.09-.271.369.369,0,0,0-.271-.09A.369.369,0,0,0,368.09-247.91Z" transform="translate(-323.924 -228.08)" fill="#41bdcc"/>
        <path id="Path_203" data-name="Path 203" d="M400.09-247.91a.37.37,0,0,0-.09.271.32.32,0,0,0,.361.361.32.32,0,0,0,.361-.361.369.369,0,0,0-.09-.271.369.369,0,0,0-.271-.09A.37.37,0,0,0,400.09-247.91Z" transform="translate(-354.278 -228.08)" fill="#41bdcc"/>
        <path id="Path_204" data-name="Path 204" d="M368.013-223.885a.406.406,0,0,0,.05.587,1.192,1.192,0,0,0,.934.325,1.209,1.209,0,0,0,.939-.325.374.374,0,0,0,.144-.316c0-.37-.352-.488-.718-.239a.656.656,0,0,1-.366.135.656.656,0,0,1-.366-.135C368.383-224.021,368.153-224.034,368.013-223.885Z" transform="translate(-323.674 -250.844)" fill="#41bdcc"/>
        <path id="Path_205" data-name="Path 205" d="M16.079-31.91a.406.406,0,0,0,0,.542c.1.09.169.09,12.188.09s12.086,0,12.188-.09a.406.406,0,0,0,0-.542c-.1-.09-.169-.09-12.188-.09S16.181-32,16.079-31.91Z" transform="translate(10 -433.056)" fill="#41bdcc"/>
      </g>
    </g>
  </g>
</svg>
