<svg xmlns="http://www.w3.org/2000/svg" width="32" height="32" viewBox="0 0 32 32">
  <g id="Group_78" data-name="Group 78" transform="translate(-139 -542)">
    <rect id="Rectangle_252" data-name="Rectangle 252" width="32" height="32" transform="translate(139 542)" fill="#fff"/>
    <g id="team" transform="translate(134.555 1047.061)">
      <path id="Path_175" data-name="Path 175" d="M222.868-503.689a2.122,2.122,0,0,0-1.265,1.253,5.393,5.393,0,0,0,0,2.1,3.54,3.54,0,0,0,1.3,1.986,1.165,1.165,0,0,0,.567.132c.578,0,.956-.286,1.454-1.1a4.056,4.056,0,0,0,.3-3.423,2.261,2.261,0,0,0-.933-.876A2.608,2.608,0,0,0,222.868-503.689Z" transform="translate(-203.033)" fill="#41bdcc"/>
      <path id="Path_176" data-name="Path 176" d="M47.054-442.667a2.142,2.142,0,0,0-1.322,1.219,2.353,2.353,0,0,0-.132,1.053,3.694,3.694,0,0,0,.395,1.86,3.538,3.538,0,0,0,.847,1.139.844.844,0,0,0,.641.195,1.137,1.137,0,0,0,1.11-.481,3.736,3.736,0,0,0,.962-2.432c.069-1.3-.286-2.032-1.173-2.444A2.165,2.165,0,0,0,47.054-442.667Z" transform="translate(-37.201 -57.537)" fill="#41bdcc"/>
      <path id="Path_177" data-name="Path 177" d="M398.512-442.6a2.1,2.1,0,0,0-1.339,1.431,4.7,4.7,0,0,0,.195,2.421,3.612,3.612,0,0,0,1.162,1.534,1.885,1.885,0,0,0,1.11-.011,3.63,3.63,0,0,0,1.311-1.992,3.952,3.952,0,0,0-.1-2.375,2.07,2.07,0,0,0-.933-.9A2.284,2.284,0,0,0,398.512-442.6Z" transform="translate(-368.575 -57.589)" fill="#41bdcc"/>
      <path id="Path_178" data-name="Path 178" d="M184.118-396.817a6.2,6.2,0,0,0-1.482,1.488,5.546,5.546,0,0,0-.578,1.677c-.029.223-.057.944-.057,1.6,0,1.671.063,1.889.836,2.833l.366.452v4.842c0,5.329-.017,5.06.361,5.392a1.291,1.291,0,0,0,1.6.034c.286-.258.309-.389.687-3.7.195-1.751.372-3.188.389-3.188s.195,1.431.389,3.188c.383,3.388.4,3.468.733,3.732a1.339,1.339,0,0,0,1.637-.149c.28-.309.275-.2.275-5.34v-4.813l.389-.481a3.392,3.392,0,0,0,.761-1.4,11.968,11.968,0,0,0,.034-1.769,4.779,4.779,0,0,0-.515-2.782,4.611,4.611,0,0,0-1.574-1.625,1.647,1.647,0,0,0-.383-.166c-.017.011-.246.818-.515,1.791s-.5,1.8-.5,1.826a8.547,8.547,0,0,1-.143-.967l-.126-1.019.172-.3c.2-.361.212-.469.057-.761-.183-.366-.252-.406-.687-.406s-.5.04-.687.406c-.155.292-.143.4.057.761l.172.3-.126,1.019a8.545,8.545,0,0,1-.143.967c-.04-.143-.876-3.177-.933-3.388-.034-.132-.08-.24-.1-.24A2.6,2.6,0,0,0,184.118-396.817Z" transform="translate(-165.794 -100.645)" fill="#41bdcc"/>
      <path id="Path_179" data-name="Path 179" d="M8.261-335.359a4.133,4.133,0,0,0-1.677,1.883,4.859,4.859,0,0,0-.435,2.541c-.04,1.912.023,2.158.784,3.108l.4.5v4.842c0,4.728,0,4.854.114,5.082a1.126,1.126,0,0,0,1.093.6,1.522,1.522,0,0,0,.435-.063,1.278,1.278,0,0,0,.561-.515c.052-.092.223-1.408.429-3.291.195-1.728.372-3.188.389-3.245s.2,1.339.4,3.091a30.27,30.27,0,0,0,.464,3.428.968.968,0,0,0,.864.584,1.194,1.194,0,0,0,.956-.292c.378-.332.361-.069.361-5.38v-4.831l.378-.452a5.29,5.29,0,0,0,.584-.876l.212-.429.017-1.442c.029-1.94-.08-2.513-.624-3.446a4.745,4.745,0,0,0-1.774-1.585c-.069-.029-.143.172-.389,1.07-.166.607-.395,1.437-.509,1.849l-.206.744-.126-1a8.059,8.059,0,0,1-.092-1.087,1.934,1.934,0,0,1,.166-.3.628.628,0,0,0,.023-.721c-.189-.366-.286-.418-.727-.4l-.395.017-.183.28c-.235.343-.235.481-.011.87l.177.309-.12.984c-.069.544-.132.99-.137,1s-.229-.778-.492-1.74-.5-1.791-.521-1.832S8.519-335.514,8.261-335.359Z" transform="translate(0 -158.583)" fill="#41bdcc"/>
      <path id="Path_180" data-name="Path 180" d="M360.213-335.694a5.312,5.312,0,0,0-1.448,1.477c-.538.91-.658,1.58-.63,3.468l.017,1.345.212.429a5.288,5.288,0,0,0,.584.876l.378.452v4.859c0,4.762,0,4.865.114,5.082a1.256,1.256,0,0,0,1.9.246c.217-.24.275-.584.63-3.7a27.733,27.733,0,0,1,.4-3.033c.023.092.189,1.454.361,3.028s.343,3,.378,3.165a1.1,1.1,0,0,0,.607.79,1.382,1.382,0,0,0,1.374-.269c.315-.343.3-.166.3-5.369v-4.808l.4-.5c.721-.893.8-1.185.8-2.822,0-2.02-.195-2.759-.979-3.749-.406-.521-1.442-1.282-1.528-1.128-.023.034-.258.859-.527,1.837s-.492,1.769-.5,1.757-.069-.452-.137-1l-.12-.984.177-.309c.218-.372.218-.5.034-.813s-.286-.366-.7-.366c-.366,0-.475.074-.664.441-.126.258-.115.372.074.75l.172.326-.132,1a3.694,3.694,0,0,1-.155.887c-.017-.063-.252-.893-.509-1.849s-.492-1.729-.509-1.723A4.075,4.075,0,0,0,360.213-335.694Z" transform="translate(-331.845 -158.248)" fill="#41bdcc"/>
    </g>
  </g>
</svg>
