<svg xmlns="http://www.w3.org/2000/svg" version="1.1" xmlns:xlink="http://www.w3.org/1999/xlink" xmlns:svgjs="http://svgjs.com/svgjs" width="512" height="512" x="0" y="0" viewBox="0 0 512 512" style="enable-background:new 0 0 512 512" xml:space="preserve" class=""><g><linearGradient id="a"><stop offset="0" stop-color="#fef0ae"></stop><stop offset="1" stop-color="#fac600"></stop></linearGradient><linearGradient xlink:href="#a" id="e" x1="256" x2="256" y1="199.511" y2="284.806" gradientUnits="userSpaceOnUse"></linearGradient><linearGradient xlink:href="#a" id="f" x1="155.035" x2="155.035" y1="212.179" y2="189.038" gradientUnits="userSpaceOnUse"></linearGradient><linearGradient xlink:href="#a" id="g" x1="356.624" x2="356.624" y1="212.179" y2="189.038" gradientUnits="userSpaceOnUse"></linearGradient><linearGradient id="b"><stop offset="0" stop-color="#fe9738" stop-opacity="0"></stop><stop offset="1" stop-color="#fe9738"></stop></linearGradient><linearGradient xlink:href="#b" id="h" x1="264.653" x2="217.97" y1="179.757" y2="113.851" gradientUnits="userSpaceOnUse"></linearGradient><linearGradient xlink:href="#a" id="i" x1="422.381" x2="224.567" y1="525.725" y2="327.911" gradientUnits="userSpaceOnUse"></linearGradient><linearGradient xlink:href="#b" id="j" x1="237.264" x2="170.671" y1="352.523" y2="313.391" gradientUnits="userSpaceOnUse"></linearGradient><linearGradient xlink:href="#b" id="k" x1="256" x2="256" y1="454.979" y2="505.782" gradientUnits="userSpaceOnUse"></linearGradient><linearGradient xlink:href="#b" id="l" x1="380.893" x2="443.367" y1="344.579" y2="344.579" gradientUnits="userSpaceOnUse"></linearGradient><linearGradient xlink:href="#b" id="m" x1="409.605" x2="357.772" y1="245.464" y2="165.141" gradientUnits="userSpaceOnUse"></linearGradient><linearGradient id="n" x1="182.111" x2="241.152" y1="21.393" y2="121.168" gradientUnits="userSpaceOnUse"><stop offset="0" stop-color="#f5fbff"></stop><stop offset="1" stop-color="#dbd5ef"></stop></linearGradient><linearGradient id="c"><stop offset="0" stop-color="#dbd5ef" stop-opacity="0"></stop><stop offset=".285" stop-color="#d9d2ee" stop-opacity=".285"></stop><stop offset=".474" stop-color="#d4c9e9" stop-opacity=".474"></stop><stop offset=".635" stop-color="#cbbae2" stop-opacity=".635"></stop><stop offset=".779" stop-color="#bfa5d7" stop-opacity=".78"></stop><stop offset=".913" stop-color="#af8aca" stop-opacity=".913"></stop><stop offset="1" stop-color="#a274bf"></stop></linearGradient><linearGradient xlink:href="#c" id="o" x1="312.114" x2="378.425" y1="105.477" y2="105.477" gradientUnits="userSpaceOnUse"></linearGradient><linearGradient xlink:href="#c" id="p" x1="155.376" x2="155.376" y1="163.207" y2="212.188" gradientUnits="userSpaceOnUse"></linearGradient><linearGradient xlink:href="#c" id="q" x1="356.624" x2="356.624" y1="163.207" y2="212.188" gradientUnits="userSpaceOnUse"></linearGradient><linearGradient id="r" x1="222.637" x2="286.866" y1="366.166" y2="366.166" gradientUnits="userSpaceOnUse"><stop offset="0" stop-color="#5a5a5a"></stop><stop offset="1" stop-color="#444"></stop></linearGradient><linearGradient id="d"><stop offset="0" stop-color="#433f43" stop-opacity="0"></stop><stop offset="1" stop-color="#1a1a1a"></stop></linearGradient><linearGradient xlink:href="#d" id="s" x1="253.637" x2="213.819" y1="366.177" y2="377.847" gradientUnits="userSpaceOnUse"></linearGradient><linearGradient xlink:href="#d" id="t" x1="240.113" x2="199.608" y1="348.47" y2="315.517" gradientUnits="userSpaceOnUse"></linearGradient><linearGradient xlink:href="#d" id="u" x1="256" x2="256" y1="318.361" y2="272.9" gradientUnits="userSpaceOnUse"></linearGradient><path fill="url(#e)" d="M392.828 177.157H119.172a21.171 21.171 0 0 0-13.301 4.7l-9.99 8.068A77.16 77.16 0 0 0 67.2 249.954v240.875c0 11.692 9.478 21.17 21.17 21.17h335.26c11.692 0 21.17-9.478 21.17-21.17V249.954a77.157 77.157 0 0 0-28.681-60.028l-9.99-8.068a21.166 21.166 0 0 0-13.301-4.701z" data-original="url(#e)"></path><ellipse cx="155.035" cy="202.411" fill="url(#f)" rx="31.216" ry="12.306" data-original="url(#f)"></ellipse><ellipse cx="356.624" cy="202.411" fill="url(#g)" rx="31.216" ry="12.306" data-original="url(#g)"></ellipse><path fill="url(#h)" d="M444.8 490.83V249.954a77.157 77.157 0 0 0-28.681-60.028l-9.99-8.068a21.171 21.171 0 0 0-13.301-4.7H164.461l-28.958 28.958 301.289 301.289c4.877-3.879 8.008-9.86 8.008-16.575z" data-original="url(#h)"></path><path fill="url(#i)" d="M256 468.052c-18.754 0-34.012-15.258-34.012-34.012v-32.803c0-7.111-3.106-13.742-8.521-18.194-16.258-13.366-25.162-33.099-24.429-54.139.602-17.303 7.848-33.527 20.402-45.683 12.547-12.149 28.992-18.875 46.305-18.94H256c36.946 0 67.004 30.057 67.004 67.003 0 20.107-8.918 38.971-24.466 51.756-5.418 4.455-8.526 11.087-8.526 18.198v32.803c0 18.753-15.258 34.011-34.012 34.011z" data-original="url(#i)"></path><path fill="url(#j)" d="M256 468.052c-18.754 0-34.012-15.258-34.012-34.012v-32.803c0-7.111-3.106-13.742-8.521-18.194-16.258-13.366-25.162-33.099-24.429-54.139.602-17.303 7.848-33.527 20.402-45.683 12.547-12.149 28.992-18.875 46.305-18.94H256c36.946 0 67.004 30.057 67.004 67.003 0 20.107-8.918 38.971-24.466 51.756-5.418 4.455-8.526 11.087-8.526 18.198v32.803c0 18.753-15.258 34.011-34.012 34.011z" data-original="url(#j)"></path><path fill="url(#k)" d="M67.2 263.491V490.83c0 11.692 9.478 21.17 21.17 21.17h335.26c11.692 0 21.17-9.478 21.17-21.17V263.491z" data-original="url(#k)"></path><path fill="url(#l)" d="m416.12 189.926-9.99-8.068a21.173 21.173 0 0 0-13.301-4.7H262.832V512H423.63c11.692 0 21.17-9.478 21.17-21.17V249.954a77.159 77.159 0 0 0-28.68-60.028z" data-original="url(#l)"></path><path fill="url(#m)" d="m416.12 189.926-9.99-8.068a21.173 21.173 0 0 0-13.301-4.7H365.58L337 205.737l107.8 107.8v-63.582a77.16 77.16 0 0 0-28.68-60.029z" data-original="url(#m)"></path><path fill="url(#n)" d="M378.633 122.633v79.778c0 4.719-9.698 8.542-21.668 8.542-11.961 0-21.668-3.823-21.668-8.542v-79.778c0-43.732-35.575-79.297-79.297-79.297s-79.297 35.565-79.297 79.297v79.778c0 4.719-9.707 8.542-21.668 8.542-11.971 0-21.668-3.823-21.668-8.542v-79.778C133.367 55.009 188.375 0 256 0s122.633 55.009 122.633 122.633z" data-original="url(#n)"></path><path fill="url(#o)" d="M256 0c-1.748 0-3.485.046-5.216.118v43.409a79.717 79.717 0 0 1 5.216-.19c43.722 0 79.297 35.565 79.297 79.297v79.778c0 4.719 9.707 8.542 21.668 8.542 11.971 0 21.668-3.823 21.668-8.542v-79.778C378.633 55.009 323.625 0 256 0z" data-original="url(#o)"></path><path fill="url(#p)" d="M155.035 210.954c11.961 0 21.668-3.823 21.668-8.542v-79.778c0-3.468.248-6.877.682-10.229h-43.588c-.28 3.374-.43 6.784-.43 10.229v79.778c0 4.718 9.698 8.542 21.668 8.542z" data-original="url(#p)"></path><path fill="url(#q)" d="M335.297 122.633v79.778c0 4.719 9.707 8.542 21.668 8.542 11.971 0 21.668-3.823 21.668-8.542v-79.778c0-3.445-.15-6.855-.43-10.229h-43.588c.433 3.352.682 6.761.682 10.229z" data-original="url(#q)"></path><path fill="url(#r)" d="M308.558 331.283c0-29.094-23.64-52.667-52.759-52.558-28.036.105-51.348 22.662-52.324 50.681-.596 17.115 6.998 32.474 19.166 42.477 8.768 7.208 13.793 18.003 13.793 29.353v32.804c0 10.806 8.76 19.566 19.566 19.566s19.566-8.76 19.566-19.566v-32.804c0-11.352 5.028-22.147 13.797-29.356 11.719-9.635 19.195-24.24 19.195-40.597z" data-original="url(#r)"></path><path fill="url(#s)" d="M308.558 331.283c0-29.094-23.64-52.667-52.759-52.558-28.036.105-51.348 22.662-52.324 50.681-.596 17.115 6.998 32.474 19.166 42.477 8.768 7.208 13.793 18.003 13.793 29.353v32.804c0 10.806 8.76 19.566 19.566 19.566s19.566-8.76 19.566-19.566v-32.804c0-11.352 5.028-22.147 13.797-29.356 11.719-9.635 19.195-24.24 19.195-40.597z" data-original="url(#s)"></path><path fill="url(#t)" d="M308.558 331.283c0-29.094-23.64-52.667-52.759-52.558-28.036.105-51.348 22.662-52.324 50.681-.596 17.115 6.998 32.474 19.166 42.477 8.768 7.208 13.793 18.003 13.793 29.353v32.804c0 10.806 8.76 19.566 19.566 19.566s19.566-8.76 19.566-19.566v-32.804c0-11.352 5.028-22.147 13.797-29.356 11.719-9.635 19.195-24.24 19.195-40.597z" data-original="url(#t)"></path><path fill="url(#u)" d="M308.558 331.283c0-29.094-23.64-52.667-52.759-52.558-28.036.105-51.348 22.662-52.324 50.681-.596 17.115 6.998 32.474 19.166 42.477 8.768 7.208 13.793 18.003 13.793 29.353v32.804c0 10.806 8.76 19.566 19.566 19.566s19.566-8.76 19.566-19.566v-32.804c0-11.352 5.028-22.147 13.797-29.356 11.719-9.635 19.195-24.24 19.195-40.597z" data-original="url(#u)"></path></g></svg>