<svg xmlns="http://www.w3.org/2000/svg" xmlns:xlink="http://www.w3.org/1999/xlink" version="1.1" x="0px" y="0px" viewBox="0 0 1000 1000" enable-background="new 0 0 1000 1000" xml:space="preserve">
<metadata fill="#6bcbd7"> Svg Vector Icons : http://www.onlinewebfonts.com/icon </metadata>
<g><path d="M500,10C229.4,10,10,229.4,10,500s219.4,490,490,490s490-219.4,490-490S770.6,10,500,10z M500,936.3C259,936.3,63.7,741,63.7,500S259,63.7,500,63.7S936.3,259,936.3,500S741,936.3,500,936.3z" fill="#6bcbd7"/><path d="M711.6,736c0,11.4-2.3,22-6.8,31.8c-4.6,9.8-10.8,18.4-18.8,25.9c-8,7.5-17.3,13.4-28,17.8c-10.7,4.3-22.2,6.5-34.5,6.5H381.1c-12.3,0-23.8-2.2-34.5-6.5c-10.7-4.3-20-10.2-28-17.8c-8-7.5-14.2-16.2-18.8-25.9c-4.6-9.8-6.8-20.4-6.8-31.8V264.2c0-11.4,2.3-22.1,6.8-32.1c4.6-10,10.8-18.8,18.8-26.3c8-7.5,17.3-13.4,28-17.8c10.7-4.3,22.2-6.5,34.5-6.5h242.4c12.3,0,23.8,2.2,34.5,6.5c10.7,4.3,20,10.2,28,17.8c8,7.5,14.2,16.3,18.8,26.3c4.6,10,6.8,20.7,6.8,32.1V736L711.6,736z M656.3,297H347.6v405.6h308.6V297L656.3,297z M502,721.7c-9.6,0-17.9,3.4-24.9,10.2c-7.1,6.8-10.6,15.2-10.6,25.3c0,9.6,3.5,17.9,10.6,24.9c7.1,7.1,15.4,10.6,24.9,10.6c10,0,18.4-3.5,25.3-10.6c6.8-7.1,10.2-15.4,10.2-24.9c0-10-3.4-18.4-10.2-25.3C520.4,725.1,512,721.7,502,721.7L502,721.7z M556.6,239c0-3.6-1.1-6.5-3.4-8.5c-2.3-2.1-4.8-3.1-7.5-3.1h-86.7c-2.3,0-4.7,1-7.2,3.1c-2.5,2-3.8,4.9-3.8,8.5s1.1,6.5,3.4,8.5c2.3,2,4.8,3.1,7.5,3.1h86.7c2.7,0,5.2-1,7.5-3.1C555.4,245.5,556.6,242.6,556.6,239L556.6,239z" fill="#6bcbd7"/></g>
</svg>