<svg xmlns="http://www.w3.org/2000/svg" width="32" height="32" viewBox="0 0 32 32">
  <g id="Group_80" data-name="Group 80" transform="translate(-114 -632)">
    <rect id="Rectangle_254" data-name="Rectangle 254" width="32" height="32" transform="translate(114 632)" fill="#fff"/>
    <g id="clipboard" transform="translate(115.867 1147.44)">
      <path id="Path_206" data-name="Path 206" d="M8.512-511.863a1.8,1.8,0,0,0-.872.915,1.8,1.8,0,0,0-.081.386v.129l-.915.029a6.514,6.514,0,0,0-1.206.1,3.156,3.156,0,0,0-2.24,2.244c-.062.253-.071,1.291-.062,9.2l.014,8.906.124.343a3.228,3.228,0,0,0,1.53,1.73c.72.357.176.338,8.592.324l7.529-.019.443-.1a7.8,7.8,0,0,0,3.769-2.063,7.185,7.185,0,0,0,1.411-1.973,6.478,6.478,0,0,0,.772-3.074,7.04,7.04,0,0,0-.529-3.15,7.733,7.733,0,0,0-.939-1.658.39.39,0,0,0-.691.162c-.019.119.033.229.31.667a6.45,6.45,0,0,1,1.082,3.931,6.434,6.434,0,0,1-1.982,4.532,6.7,6.7,0,0,1-3.431,1.878,9.126,9.126,0,0,1-2.2.076,6.819,6.819,0,0,1-3.974-1.992,6.9,6.9,0,0,1-1.863-3.636,8.439,8.439,0,0,1,0-2.192,7.3,7.3,0,0,1,1.029-2.626,6.865,6.865,0,0,1,4.646-2.983,8.6,8.6,0,0,1,2.454.072,7,7,0,0,1,2.9,1.425c.291.233.453.257.648.1a.3.3,0,0,0,.124-.281c0-.157-.033-.21-.243-.4a7.528,7.528,0,0,0-1.468-.967l-.381-.181,0-2.859c0-3.183,0-3.183-.324-3.836a3.419,3.419,0,0,0-1.344-1.349A3.559,3.559,0,0,0,19.3-510.4l-.915-.029-.024-.229a1.522,1.522,0,0,0-.5-.905c-.443-.4-.152-.376-4.918-.372A33.111,33.111,0,0,0,8.512-511.863Zm8.759.815a1,1,0,0,1,.248.3c.086.172.1.286.1,1.406,0,1.325-.014,1.415-.267,1.654a.939.939,0,0,1-.272.176c-.091.038-1.42.052-4.117.052-3.95,0-3.989,0-4.193-.1a.731.731,0,0,1-.324-.3c-.119-.2-.119-.21-.119-1.449,0-1.287.014-1.42.2-1.625.229-.248.086-.243,4.489-.229l4.1.01Zm-9.712,2.082v.643H6.92c-.991,0-1.277.091-1.563.486-.1.143-.11.219-.124.753-.014.557-.01.605.086.691a.4.4,0,0,0,.553-.043c.1-.114.114-.176.114-.548a1.054,1.054,0,0,1,.057-.472,2.785,2.785,0,0,1,.872-.057H7.73l.086.143a1.484,1.484,0,0,0,.324.334c.438.348.243.338,4.927.324l4.189-.014.31-.172a1.478,1.478,0,0,0,.477-.391l.167-.224h.82c.762,0,.824,0,.872.091.029.062.048.91.048,2.43v2.34h-.1a12.276,12.276,0,0,0-1.639.191,7.575,7.575,0,0,0-5.785,5.761,7.569,7.569,0,0,0,1.106,5.828l.315.467H9.989c-3.441,0-3.86-.01-3.927-.076s-.076-.805-.076-7.405v-7.334l-.11-.124a.419.419,0,0,0-.562-.043c-.091.081-.091.219-.091,7.567v7.486l.11.191a1.353,1.353,0,0,0,.31.334l.21.143,4.336.014,4.341.01.267.229a7.656,7.656,0,0,0,1.2.867l.4.238H11.18c-5.733,0-5.461.014-6.061-.291a2.463,2.463,0,0,1-.934-.905c-.315-.553-.3.067-.3-9.483,0-8.5,0-8.663.1-8.963a2.492,2.492,0,0,1,1.12-1.387,2.781,2.781,0,0,1,1.587-.267l.867,0Zm12.828-.548a2.349,2.349,0,0,1,1.573,1.615,14.927,14.927,0,0,1,.086,2.945c0,1.449,0,2.635-.014,2.635s-.248-.052-.534-.119a5.235,5.235,0,0,0-.653-.119h-.133v-2.5c0-2.368,0-2.516-.091-2.683a1.041,1.041,0,0,0-.481-.467,2.4,2.4,0,0,0-.963-.1l-.8-.019v-1.277h.853A3.512,3.512,0,0,1,20.387-509.513Z" transform="translate(0 0)" fill="#41bdcc"/>
      <path id="Path_207" data-name="Path 207" d="M134.33-487.711a1.464,1.464,0,0,0-.805,2.187,1.383,1.383,0,0,0,1.234.634,1.318,1.318,0,0,0,1-.405,1.3,1.3,0,0,0,.405-1.024,1.3,1.3,0,0,0-.405-1.025A1.526,1.526,0,0,0,134.33-487.711Zm.605.753a.827.827,0,0,1,.448.457.684.684,0,0,1-.815.824.669.669,0,0,1-.071-1.268A.476.476,0,0,1,134.935-486.958Z" transform="translate(-123.96 -23.027)" fill="#41bdcc"/>
      <path id="Path_208" data-name="Path 208" d="M226.148-487.61a1.392,1.392,0,0,0-.729.567,1.479,1.479,0,0,0,.291,1.92,1.252,1.252,0,0,0,.948.3,1.186,1.186,0,0,0,.953-.381,1.446,1.446,0,0,0-.367-2.354A1.609,1.609,0,0,0,226.148-487.61Zm.805.777a1.02,1.02,0,0,1,.2.2.667.667,0,0,1-.715,1.029.868.868,0,0,1-.477-.519.735.735,0,0,1,.453-.762A.78.78,0,0,1,226.953-486.834Z" transform="translate(-211.475 -23.104)" fill="#41bdcc"/>
      <path id="Path_209" data-name="Path 209" d="M81.014-369.6a1.583,1.583,0,0,1-.176.043c-.3.067-.462.291-1,1.4l-.519,1.063-.367-.491c-.405-.543-.634-.705-.986-.705a1.024,1.024,0,0,0-.877.586,1.227,1.227,0,0,0,0,.681,23.5,23.5,0,0,0,1.873,2.54.976.976,0,0,0,1.125-.1,14.322,14.322,0,0,0,1.067-1.978c.858-1.735.915-1.863.915-2.111a.909.909,0,0,0-.81-.924A.865.865,0,0,0,81.014-369.6Zm.253.91c.014.11-1.658,3.512-1.754,3.569-.029.019-.091,0-.138-.043-.124-.11-1.577-2.149-1.577-2.206a.17.17,0,0,1,.2-.133,6.065,6.065,0,0,1,.581.739,6.316,6.316,0,0,0,.6.762.416.416,0,0,0,.415-.024,12.373,12.373,0,0,0,.772-1.434c.605-1.234.681-1.358.777-1.344A.133.133,0,0,1,81.267-368.689Z" transform="translate(-70.382 -135.554)" fill="#41bdcc"/>
      <path id="Path_210" data-name="Path 210" d="M194.166-327.9a.422.422,0,0,0,0,.519l.091.114,2.225.014,2.221.014.148-.148c.119-.124.138-.172.114-.3a.552.552,0,0,0-.11-.238c-.071-.081-.214-.086-2.33-.086h-2.254Z" transform="translate(-181.842 -175.175)" fill="#41bdcc"/>
      <path id="Path_211" data-name="Path 211" d="M80.8-227.577c-.324.119-.4.214-.953,1.33-.3.6-.558,1.091-.567,1.091s-.172-.214-.362-.477c-.424-.577-.605-.691-1.048-.658a.932.932,0,0,0-.467.143.949.949,0,0,0-.281,1.206c.152.267,1.606,2.273,1.7,2.349a.951.951,0,0,0,.619.214.828.828,0,0,0,.681-.286c.071-.071.529-.948,1.02-1.944.815-1.654.891-1.835.9-2.073a.878.878,0,0,0-.834-.929A1.03,1.03,0,0,0,80.8-227.577Zm.376.734a.135.135,0,0,1,.076.124c0,.052-.386.877-.853,1.83-.7,1.425-.872,1.735-.953,1.735a11.415,11.415,0,0,1-1.639-2.283c.11-.176.224-.076.758.662.567.786.667.867.934.767.11-.043.238-.262.805-1.4a7.774,7.774,0,0,1,.782-1.468A.774.774,0,0,1,81.172-226.843Z" transform="translate(-70.354 -270.776)" fill="#41bdcc"/>
      <path id="Path_212" data-name="Path 212" d="M239.628-275.8a5.674,5.674,0,0,0-3.655,2.259,5.591,5.591,0,0,0-.457,5.79,5.555,5.555,0,0,0,3.931,3.007,7.545,7.545,0,0,0,2.1.024,5.635,5.635,0,0,0,4.174-7.71,5.022,5.022,0,0,0-1.22-1.777,5.12,5.12,0,0,0-1.749-1.215A5.736,5.736,0,0,0,239.628-275.8Zm2.068.848a4.882,4.882,0,0,1,3.617,3.888,5.757,5.757,0,0,1-.029,1.739,4.9,4.9,0,0,1-1.287,2.43,4.8,4.8,0,0,1-6.776.152,4.88,4.88,0,0,1-1.52-3.8,4.906,4.906,0,0,1,4.1-4.508A5.1,5.1,0,0,1,241.7-274.951Z" transform="translate(-220.737 -224.822)" fill="#41bdcc"/>
      <path id="Path_213" data-name="Path 213" d="M330.932-249.545a1.157,1.157,0,0,0-.762.705,17.885,17.885,0,0,0-.038,2.121l.014,1.935.143.2a1.124,1.124,0,0,0,.4.338l.253.133h1.21c1.339,0,1.43-.014,1.73-.3a1.1,1.1,0,0,0-.248-1.773,1.4,1.4,0,0,0-.781-.119h-.538v-1.206c0-1.163,0-1.21-.114-1.444a1.146,1.146,0,0,0-.534-.539A1.538,1.538,0,0,0,330.932-249.545Zm.567.939a9.455,9.455,0,0,1,.052,1.468c0,1.258,0,1.358.091,1.463s.119.114.858.129c.758.014.767.019.863.138a.27.27,0,0,1-.024.419l-.114.119h-1.058c-1.025,0-1.067,0-1.172-.1l-.11-.1v-1.735a14.049,14.049,0,0,1,.052-1.83A.324.324,0,0,1,331.5-248.606Z" transform="translate(-311.412 -249.871)" fill="#41bdcc"/>
    </g>
  </g>
</svg>
