<svg xmlns="http://www.w3.org/2000/svg" width="32" height="32" viewBox="0 0 32 32">
  <g id="Group_79" data-name="Group 79" transform="translate(-51 -531)">
    <rect id="Rectangle_253" data-name="Rectangle 253" width="32" height="32" transform="translate(51 531)" fill="#fff"/>
    <g id="plot" transform="translate(54.487 1045.878)">
      <path id="Path_182" data-name="Path 182" d="M173.447-511.685a3.892,3.892,0,0,0-1.922,1.1,4.08,4.08,0,0,0-.906,4.389,16,16,0,0,0,1.3,2.833,32.377,32.377,0,0,0,2.387,3.431l.123.142.119-.142a26.443,26.443,0,0,0,3-4.6c1.049-2.164,1.205-3.663.531-5.011a3.986,3.986,0,0,0-2.368-2.036,2.858,2.858,0,0,0-1.2-.176A3.336,3.336,0,0,0,173.447-511.685Zm1.7,1.049a2.94,2.94,0,0,1,1.409.807,3,3,0,0,1,.674,3.227A13.678,13.678,0,0,1,176-503.917a18.658,18.658,0,0,1-1.585,2.344,15.82,15.82,0,0,1-1.257-1.8,18.094,18.094,0,0,1-1.329-2.577c-.664-1.7-.527-2.9.451-3.877A2.971,2.971,0,0,1,175.15-510.636Z" transform="translate(-162.272 0)" fill="#41bdcc"/>
      <path id="Path_183" data-name="Path 183" d="M225.03-458.864a1.676,1.676,0,0,0-1.015.949,1.767,1.767,0,0,0,.09,1.276,1.559,1.559,0,0,0,2.4.4,1.4,1.4,0,0,0,.46-1.034,1.294,1.294,0,0,0-.413-1.163,1.431,1.431,0,0,0-1.11-.465A2.023,2.023,0,0,0,225.03-458.864Zm.773,1.191a.421.421,0,0,1-.009.622c-.413.408-1.068-.142-.712-.593A.442.442,0,0,1,225.8-457.673Z" transform="translate(-213.31 -50.353)" fill="#41bdcc"/>
      <path id="Path_184" data-name="Path 184" d="M96-373.478v.522h3.037V-374H96Z" transform="translate(-91.445 -131.227)" fill="#41bdcc"/>
      <path id="Path_185" data-name="Path 185" d="M352-373.478v.522h3.037V-374H352Z" transform="translate(-335.297 -131.227)" fill="#41bdcc"/>
      <path id="Path_186" data-name="Path 186" d="M3.511-319.478v.522H4.3l-1.072,3-1.077,3-1.077.014L0-312.93v1.044H2.918l1.424-3.991c.783-2.192,1.428-4.014,1.438-4.052.014-.062-.152-.071-1.125-.071H3.511Z" transform="translate(0 -182.665)" fill="#41bdcc"/>
      <path id="Path_187" data-name="Path 187" d="M116.093-319.943c-.01.033-.394,1.822-.854,3.976s-.845,3.953-.859,4c-.024.081.318.085,6.719.085h6.738l-.028-.119c-.014-.066-.408-1.889-.873-4.048l-.84-3.924-.977-.014-.982-.009v1.044h.546c.527,0,.546,0,.569.1.043.19,1.257,5.889,1.257,5.908s-2.434.014-5.409.014-5.409-.009-5.409-.019,1.172-5.509,1.238-5.784l.052-.223h1.082V-320h-.973C116.349-320,116.107-319.986,116.093-319.943Z" transform="translate(-108.951 -182.665)" fill="#41bdcc"/>
      <path id="Path_188" data-name="Path 188" d="M390.186-319.934c.009.033.655,1.86,1.438,4.057l1.423,3.991h2.918v-1.044l-1.077-.009-1.077-.014-1.053-2.942c-.584-1.618-1.058-2.97-1.058-3s.1-.057.375-.057h.38V-320h-1.144C390.376-320,390.172-319.991,390.186-319.934Z" transform="translate(-371.671 -182.665)" fill="#41bdcc"/>
      <path id="Path_189" data-name="Path 189" d="M10-95.478v.522h1.566V-96H10Z" transform="translate(-9.525 -396.036)" fill="#41bdcc"/>
      <path id="Path_190" data-name="Path 190" d="M74-95.478v.522h1.566V-96H74Z" transform="translate(-70.489 -396.036)" fill="#41bdcc"/>
      <path id="Path_191" data-name="Path 191" d="M138-95.478v.522h1.566V-96H138Z" transform="translate(-131.452 -396.036)" fill="#41bdcc"/>
      <path id="Path_192" data-name="Path 192" d="M202-95.478v.522h1.566V-96H202Z" transform="translate(-192.415 -396.036)" fill="#41bdcc"/>
      <path id="Path_193" data-name="Path 193" d="M266-95.478v.522h1.566V-96H266Z" transform="translate(-253.378 -396.036)" fill="#41bdcc"/>
      <path id="Path_194" data-name="Path 194" d="M330-95.478v.522h1.566V-96H330Z" transform="translate(-314.341 -396.036)" fill="#41bdcc"/>
      <path id="Path_195" data-name="Path 195" d="M394-95.478v.522h1.566V-96H394Z" transform="translate(-375.305 -396.036)" fill="#41bdcc"/>
      <path id="Path_196" data-name="Path 196" d="M458-95.478v.522h1.566V-96H458Z" transform="translate(-436.268 -396.036)" fill="#41bdcc"/>
      <path id="Path_197" data-name="Path 197" d="M0-21.478v.522H24.295V-22H0Z" transform="translate(0 -466.524)" fill="#41bdcc"/>
    </g>
  </g>
</svg>
