<svg xmlns="http://www.w3.org/2000/svg" width="50.611" height="50.611" viewBox="0 0 50.611 50.611">
  <g id="bulding_adobe_express" transform="translate(-314.227 -330)">
    <path id="Path_148" data-name="Path 148" d="M1,18.6V1H51.611V51.611H1V18.6M46.947,43.6a7.471,7.471,0,0,0,1.288-.9,4.2,4.2,0,0,0,1.01-3.254,3.964,3.964,0,0,0-1.622-3.228c-.141-.075-.278-.162-.425-.224a2.882,2.882,0,0,0-3.416.94,4.887,4.887,0,0,0-.667,4.364,3.634,3.634,0,0,0,2.167,2.4c0,1.05,0,2.1-.1,3.159-1.809,0-3.618,0-5.435-.093V23.159c-1.886,0-3.712,0-5.629-.015-2.338,0-4.675,0-7.023-.1V2.6c-2.678,0-5.295,0-8-.014q-3.129,0-6.259,0c-2.858,0-5.716.01-8.626.005a1.289,1.289,0,0,0-.045.181q0,11.668,0,23.337c0,.1.01.2,0,.387q0,1.43,0,2.861c0,5.836-.006,11.672-.1,17.511H2.62v3.141H50V46.854c-1.06,0-2.094,0-3.134-.091,0-1.05,0-2.1.078-3.16M33.541,15.3c.118.188.224.384.356.561a.751.751,0,0,1,.047.914c-.383.731-.678,1.509-1,2.272-.123.293-.218.6-.369,1.018,1.2-.516,2.271-.962,3.327-1.441a.692.692,0,0,1,.787.058,7.138,7.138,0,0,0,3.547,1.27,9.259,9.259,0,0,0,4.333-.544,8.75,8.75,0,0,0,4.062-3.258A8.619,8.619,0,0,0,49.817,9.19a8.29,8.29,0,0,0-3.768-5.3A8.183,8.183,0,0,0,42.4,2.6a8.91,8.91,0,0,0-4.416.572,8.8,8.8,0,0,0-4.292,3.81A8.921,8.921,0,0,0,32.628,11.9,8.625,8.625,0,0,0,33.541,15.3Z" transform="translate(313.227 329)" fill="#fff"/>
    <path id="Path_149" data-name="Path 149" d="M33.022,40.854c-.005-.1-.016-.2-.016-.295,0-7.779,0-15.558.026-23.392a.854.854,0,0,0,.072-.116q4.287-.008,8.574-.015c2.086,0,4.173,0,6.305.053.047,1.067.049,2.081,0,3.1-.408,0-.77.018-1.131,0-.282-.012-.414.063-.413.381q.015,3.574,0,7.148c0,.312.119.4.407.387a7.31,7.31,0,0,1,1.182.051c0,1.063,0,2.08-.045,3.1-.424,0-.8.013-1.18,0-.239-.006-.362.061-.361.33q.009,3.624,0,7.248c0,.266.113.341.357.335a7.093,7.093,0,0,1,1.034.05,2.131,2.131,0,0,1-2.094,1.627q-6.36,0-12.721,0m6.162-9.587H36.961c0,2.6,0,5.1,0,7.6,0,.332.205.313.427.313,1.827,0,3.653-.007,5.48.005.317,0,.43-.09.428-.418q-.017-3.53,0-7.06c0-.354-.12-.446-.456-.442-1.185.016-2.37.006-3.653.006M38.2,28.1c1.547,0,3.094-.008,4.641.006.336,0,.458-.088.456-.442q-.02-3.505,0-7.011c0-.376-.118-.472-.48-.469-1.794.016-3.588.021-5.381,0-.421-.006-.481.161-.479.52.013,2.09.006,4.18.006,6.27C36.96,28.1,36.96,28.1,38.2,28.1Z" transform="translate(284.384 314.55)" fill="#41bdcc"/>
    <path id="Path_150" data-name="Path 150" d="M32.923,242.829c4.248-.045,8.488-.044,12.728-.045a2.224,2.224,0,0,0,2.139-1.632,11.243,11.243,0,0,1,1.73-.006c0,1.073,0,2.1-.046,3.124-1.058,0-2.069,0-3.082,0v7.9c1.065,0,2.1,0,3.128.047,0,1.072,0,2.1-.046,3.122-2.757,0-5.467.005-8.178-.008-.358,0-.485.087-.482.466.018,2.48.013,4.961-.031,7.444-2.657,0-5.268,0-7.879,0q0-8.754.009-17.508c0-.953,0-1.907.009-2.906m3.945,7.616v1.688h6.289V244.3H36.868Z" transform="translate(284.476 112.62)" fill="#41bdcc"/>
    <path id="Path_151" data-name="Path 151" d="M214.4,225.166h5.538c0,7.878,0,15.745-.043,23.66-2.39.045-4.736.042-7.081-.005,0-.835.015-1.625,0-2.415a2.371,2.371,0,0,0-4.739-.007c-.013.823,0,1.645-.042,2.471-2.393,0-4.74,0-7.083-.048.005-2.384.007-4.723.056-7.062l.589,0H212.7a1.438,1.438,0,0,0,1.449-.782c.892,0,1.737,0,2.585,0v-4.759c-.8,0-1.568,0-2.336-.046,0-1.063,0-2.08.047-3.1.793,0,1.541,0,2.289,0V228.3c-.8,0-1.568,0-2.336-.046C214.4,227.2,214.4,226.181,214.4,225.166Z" transform="translate(133.043 126.993)" fill="#41bdcc"/>
    <path id="Path_152" data-name="Path 152" d="M214.086,240.775a1.343,1.343,0,0,1-1.4.778H201.574a2.956,2.956,0,0,1-.591-.042,4.18,4.18,0,0,1-.049-.747c0-1.025,0-2.051,0-3.168,0-2.695,0-5.3,0-7.9,0-1.026,0-2.053,0-3.172,0-.451.018-.811,0-1.168-.021-.327.11-.421.424-.415.913.016,1.826.005,2.786,0l3.133,0c2.338,0,4.675,0,7.058.014.047,1.022.047,2.038,0,3.1-.67.05-1.294.06-1.918.048-.279-.006-.419.057-.416.378q.021,2,0,3.991c0,.315.126.389.41.384.657-.011,1.314,0,1.971.005,0,1.017,0,2.035-.048,3.1-.67.05-1.294.06-1.918.048-.279-.006-.419.057-.416.378q.021,2,0,3.991c0,.315.126.39.41.384.558-.012,1.117,0,1.675.008m-7.467-.013c.625,0,1.25-.007,1.875,0,.248,0,.354-.079.352-.34q-.012-2.023,0-4.046c0-.284-.108-.367-.378-.365q-2,.014-4,0c-.271,0-.38.082-.378.366.01,1.332.012,2.664,0,4,0,.309.111.4.4.391.674-.015,1.349,0,2.122,0m-2.521-9.047c0,.247.014.494,0,.74-.021.294.082.407.39.4q2-.02,4,0c.284,0,.367-.108.365-.378q-.014-2,0-4c0-.271-.083-.38-.366-.378-1.332.01-2.665.012-4,0-.309,0-.394.112-.391.4C204.106,229.545,204.1,230.581,204.1,231.716Z" transform="translate(133.062 127.196)" fill="#41bdcc"/>
    <path id="Path_153" data-name="Path 153" d="M35.533,464.881l7.132.005,4.73-.005,7.088.006h5.565l1.6-.009h3.128v3.153H17.391v-3.141h9.458Z" transform="translate(298.455 -89.023)" fill="#94a4ad"/>
    <path id="Path_154" data-name="Path 154" d="M321.747,29.373a8.034,8.034,0,0,1-.911-3.334,8.921,8.921,0,0,1,1.066-4.913,8.8,8.8,0,0,1,4.292-3.81,8.91,8.91,0,0,1,4.416-.572,7.547,7.547,0,0,1,3.661,1.369c.013,2.993.04,5.908,0,8.823-.026,2.043-1.843,2.81-3.652,2.29.758-1.252,1.516-2.466,2.256-3.691a3.627,3.627,0,0,0-2.587-5.593,3.814,3.814,0,0,0-4.042,1.567,3.606,3.606,0,0,0,.085,4.254c.734,1.149,1.422,2.329,2.1,3.526a2.019,2.019,0,0,1-.512.084Q324.836,29.377,321.747,29.373Z" transform="translate(25.018 314.86)" fill="#f5f4f4"/>
    <path id="Path_155" data-name="Path 155" d="M192.9,37.681c-1.024.047-2.052.049-3.126,0-.045-2.108-.045-4.17-.045-6.29h-4.74c0-1.017,0-2.035.045-3.1,1.584-.049,3.122-.049,4.662-.049V20.325h-4.707c0-1.015,0-2.029,0-3.089,2.616-.045,5.233-.045,7.911-.045C192.9,24.01,192.9,30.823,192.9,37.681Z" transform="translate(147.427 314.41)" fill="#41bdcc"/>
    <path id="Path_156" data-name="Path 156" d="M321.393,42.641c2.058-.035,4.117-.033,6.176-.036a4.259,4.259,0,0,0,.54-.064c.383.521.71,1.054,1.066,1.634l1.084-1.685c1.818.487,3.635-.28,3.661-2.323.036-2.914.01-5.83.012-8.791a7.871,7.871,0,0,1,3.739,5.188,8.619,8.619,0,0,1-1.186,6.964,8.75,8.75,0,0,1-4.062,3.258,9.258,9.258,0,0,1-4.332.544,7.138,7.138,0,0,1-3.547-1.27.692.692,0,0,0-.787-.058c-1.056.479-2.127.925-3.327,1.441.151-.42.246-.725.369-1.018.321-.763.616-1.541,1-2.272a.751.751,0,0,0-.047-.914A4.632,4.632,0,0,1,321.393,42.641Z" transform="translate(25.373 301.627)" fill="#e0e0e0"/>
    <path id="Path_157" data-name="Path 157" d="M425.011,358.307a4.734,4.734,0,0,1,.656-4.29,2.882,2.882,0,0,1,3.416-.94,1.429,1.429,0,0,1,.442.3c.017,1.195.022,2.313.015,3.432a1.439,1.439,0,0,1-1.243,1.544C427.208,358.428,426.107,358.331,425.011,358.307Z" transform="translate(-68.658 11.922)" fill="#85bd7d"/>
    <path id="Path_158" data-name="Path 158" d="M427.111,363.334c1.1-.013,2.2.084,3.292.009a1.439,1.439,0,0,0,1.243-1.544c.007-1.118,0-2.237,0-3.4a3.7,3.7,0,0,1,1.586,3.122,4.2,4.2,0,0,1-1.01,3.254,5.963,5.963,0,0,1-1.366.9c-.583,0-1.088.006-1.593.008A3.289,3.289,0,0,1,427.111,363.334Z" transform="translate(-70.763 6.932)" fill="#67ac5c"/>
    <path id="Path_159" data-name="Path 159" d="M448.947,432.122c.5-.047,1.007-.049,1.553-.048.04,1.052.038,2.1.039,3.2-.5.048-1,.051-1.549.05C448.946,434.267,448.948,433.218,448.947,432.122Z" transform="translate(-90.441 -59.463)" fill="#74574a"/>
    <path id="Path_160" data-name="Path 160" d="M33.362,17.141c.016.03,0,.05-.039.075C33.316,17.2,33.326,17.166,33.362,17.141Z" transform="translate(284.101 314.455)" fill="#b3bec4"/>
    <path id="Path_161" data-name="Path 161" d="M75.25,160.941c1.234,0,2.419.01,3.6-.006.336,0,.458.088.456.442q-.02,3.53,0,7.06c0,.328-.111.42-.428.418-1.827-.012-3.653-.006-5.48-.005-.222,0-.428.019-.427-.313.007-2.5,0-5,0-7.6Z" transform="translate(248.368 184.875)" fill="#f5f5f5"/>
    <path id="Path_162" data-name="Path 162" d="M74.131,56.815c-1.188,0-1.188,0-1.188-1.128,0-2.09.007-4.18-.006-6.27,0-.359.058-.526.479-.52,1.794.024,3.588.019,5.381,0,.362,0,.482.093.48.469q-.024,3.505,0,7.011c0,.354-.119.445-.456.442C77.274,56.807,75.727,56.815,74.131,56.815Z" transform="translate(248.401 285.838)" fill="#f5f5f5"/>
    <path id="Path_163" data-name="Path 163" d="M170.489,48.9c1.6,0,3.162,0,4.754,0v7.921c-1.54,0-3.078,0-4.661,0-.44,0-.835-.017-1.229,0-.289.011-.409-.075-.407-.387q.015-3.574,0-7.148c0-.318.131-.393.413-.381C169.719,48.92,170.081,48.907,170.489,48.9Z" transform="translate(161.883 285.836)" fill="#f5f5f5"/>
    <path id="Path_164" data-name="Path 164" d="M170.51,160.9c1.6,0,3.158,0,4.787,0,0,2.12,0,4.181,0,6.289-.915.047-1.828.057-2.741.042-.314-.006-.445.088-.424.415.023.357,0,.717,0,1.122-.561.049-1.122.052-1.729.061-.391,0-.736-.015-1.08-.007-.243.006-.357-.069-.357-.335q.01-3.624,0-7.248c0-.27.122-.336.361-.33C169.708,160.916,170.086,160.907,170.51,160.9Z" transform="translate(161.861 184.907)" fill="#f5f5f5"/>
    <path id="Path_165" data-name="Path 165" d="M121.621,392.79c-2.867.047-5.731.049-8.64.048-.048-2.483-.043-4.964-.061-7.444,0-.379.125-.468.482-.466,2.71.013,5.421.007,8.178.008a3.954,3.954,0,0,1,.049.749C121.629,388.068,121.626,390.406,121.621,392.79Z" transform="translate(212.37 -16.977)" fill="#e0e0e0"/>
    <path id="Path_166" data-name="Path 166" d="M73,279.435v-6.1h6.289v7.832H73Z" transform="translate(248.344 83.581)" fill="#f5f5f5"/>
    <path id="Path_167" data-name="Path 167" d="M172.429,273.015c.046,2.6.047,5.206.047,7.854-1.032.046-2.063.046-3.128.046v-7.9C170.36,273.013,171.371,273.013,172.429,273.015Z" transform="translate(161.521 83.876)" fill="#f5f5f5"/>
    <path id="Path_168" data-name="Path 168" d="M315.371,261.66c-.7,0-1.36-.013-2.017,0-.285,0-.414-.069-.41-.384q.02-2,0-3.991c0-.321.137-.384.416-.378.624.012,1.248,0,1.919,0,.814,0,1.581,0,2.382,0v4.757C316.911,261.656,316.164,261.656,315.371,261.66Z" transform="translate(32.119 98.397)" fill="#f5f5f5"/>
    <path id="Path_169" data-name="Path 169" d="M315.074,341.662c-.6,0-1.163-.016-1.721,0-.285.006-.414-.069-.41-.384q.02-2,0-3.991c0-.321.137-.384.416-.378.624.012,1.248,0,1.919,0,.814,0,1.581,0,2.382,0v4.759C316.812,341.658,315.966,341.658,315.074,341.662Z" transform="translate(32.119 26.305)" fill="#f5f5f5"/>
    <path id="Path_170" data-name="Path 170" d="M277.728,421.692c-1.549.048-3.095.049-4.686.049-.048-.826-.063-1.649-.05-2.471a2.371,2.371,0,0,1,4.739.007C277.743,420.067,277.731,420.857,277.728,421.692Z" transform="translate(68.126 -45.879)" fill="#e0e0e0"/>
    <path id="Path_171" data-name="Path 171" d="M235.421,341.708c-.724,0-1.4-.011-2.072,0-.293.007-.407-.083-.4-.391.013-1.332.011-2.665,0-4,0-.284.107-.368.378-.366q2,.014,4,0c.271,0,.381.082.378.365q-.015,2.023,0,4.046c0,.261-.1.344-.352.34C236.721,341.7,236.1,341.708,235.421,341.708Z" transform="translate(104.21 26.25)" fill="#f5f5f5"/>
    <path id="Path_172" data-name="Path 172" d="M232.945,260.507c0-1.085.008-2.122,0-3.158,0-.292.082-.408.391-.4,1.332.013,2.665.011,4,0,.283,0,.368.107.366.378q-.014,2,0,4c0,.271-.082.381-.365.378q-2-.015-4,0c-.308,0-.411-.111-.39-.4C232.959,261.05,232.945,260.8,232.945,260.507Z" transform="translate(104.215 98.356)" fill="#f5f5f5"/>
    <path id="Path_173" data-name="Path 173" d="M374.126,58.218c-.351.566-.694,1.1-1.093,1.718-.356-.58-.683-1.113-1.038-1.666-.736-1.186-1.424-2.365-2.158-3.514a3.606,3.606,0,0,1-.085-4.254,3.814,3.814,0,0,1,4.042-1.567,3.627,3.627,0,0,1,2.587,5.593c-.74,1.225-1.5,2.439-2.256,3.691m-2.005-6.669a1.531,1.531,0,0,0-.568,1.793,1.578,1.578,0,0,0,1.4,1.07,1.605,1.605,0,0,0,1.538-.95,1.583,1.583,0,0,0-2.372-1.913Z" transform="translate(-18.485 285.866)" fill="#d44941"/>
    <path id="Path_174" data-name="Path 174" d="M393.677,73.335a1.582,1.582,0,0,1,2.341,1.934,1.605,1.605,0,0,1-1.538.95,1.578,1.578,0,0,1-1.4-1.07A1.542,1.542,0,0,1,393.677,73.335Z" transform="translate(-40.01 264.059)" fill="#f4f2f2"/>
  </g>
</svg>
