<svg xmlns="http://www.w3.org/2000/svg" width="32" height="32" viewBox="0 0 32 32">
  <g id="Group_77" data-name="Group 77" transform="translate(-185 -476)">
    <rect id="Rectangle_251" data-name="Rectangle 251" width="32" height="32" transform="translate(185 476)" fill="#fff"/>
    <g id="buildings-urban-towers-group-of-three" transform="translate(187.113 980.434)">
      <path id="Path_181" data-name="Path 181" d="M24.445-499.569c-.431.237-.83.464-.877.507-.074.057-.095.147-.095.417,0,.294-.016.365-.116.46-.068.066-1.182.654-2.484,1.313s-2.395,1.228-2.426,1.27c-.053.057-.068,1.578-.068,7.238,0,5.508-.016,7.176-.063,7.219a3.123,3.123,0,0,1-1.187,0c-.047-.043-.063-1.744-.063-7.361,0-4.015-.016-7.347-.032-7.409-.068-.223-.231-.185-1.134.28-.473.237-.9.469-.945.507-.074.057-.095.147-.095.412s-.021.37-.089.441c-.053.057-1.145.635-2.431,1.289s-2.368,1.223-2.4,1.266c-.053.062-.068,1.2-.068,5.3,0,4-.016,5.233-.063,5.276a3.4,3.4,0,0,1-1.239,0c-.047-.043-.063-1.327-.063-5.5,0-5.38,0-5.442-.105-5.536a.366.366,0,0,0-.147-.095,8.648,8.648,0,0,0-1.14.626l-.578.346-.026.389a1.874,1.874,0,0,1-.053.408c-.016.014-1.166.6-2.552,1.313A18.057,18.057,0,0,0,1.344-487.8c-.016.057-.032,2.275-.032,4.925v4.825H.756c-.772,0-.756-.009-.756.592,0,.441.011.5.1.545.142.066,26.546.066,26.688,0,.089-.047.1-.1.1-.545,0-.6.016-.592-.756-.592h-.557v-10.869c0-9.76-.011-10.878-.084-10.973a.263.263,0,0,0-.168-.1A6.812,6.812,0,0,0,24.445-499.569Zm-.026,2.6c.074.128.074,18.32,0,18.448-.047.076-.116.09-.42.09s-.373-.014-.42-.09c-.068-.118-.074-18.1-.005-18.2a1.708,1.708,0,0,1,.672-.332A.2.2,0,0,1,24.419-496.971Zm-2.006,9.67c.005,6.423-.005,8.755-.047,8.8a1.151,1.151,0,0,1-.777,0c-.042-.047-.053-2.342-.047-8.655l.016-8.594.315-.161a1.343,1.343,0,0,1,.42-.147C22.4-496.042,22.4-496,22.413-487.3Zm-2.122-7.788c.074.066.084.886.084,8.309,0,6.342-.016,8.248-.063,8.29a1.535,1.535,0,0,1-.777.009c-.068-.038-.079-1-.095-8.1-.005-4.427.011-8.1.032-8.158A.926.926,0,0,1,19.85-495c.179-.09.336-.161.347-.161A.424.424,0,0,1,20.291-495.089Zm-4.38,1.868c.037.062.047,2.384.042,7.394-.016,6.432-.026,7.309-.095,7.347a1.2,1.2,0,0,1-.756-.028c-.074-.066-.084-.787-.084-7.238,0-3.944.021-7.2.042-7.224a2.165,2.165,0,0,1,.7-.346A.2.2,0,0,1,15.912-493.222Zm-2.006,7.792c.005,5.034-.005,6.882-.047,6.93a1.151,1.151,0,0,1-.777,0c-.042-.047-.053-1.853-.047-6.783L13.05-492l.315-.161a1.341,1.341,0,0,1,.42-.147C13.89-492.3,13.89-492.26,13.906-485.429Zm-2.038.507c0,7.2.053,6.489-.473,6.489s-.473.687-.473-6.347c0-4.887.016-6.214.068-6.271a1.591,1.591,0,0,1,.373-.223c.294-.137.315-.142.41-.071S11.868-491.018,11.868-484.922Zm-4.474.844c.005,4.038-.005,5.532-.047,5.579a1.151,1.151,0,0,1-.777,0c-.042-.047-.053-1.5-.047-5.432l.016-5.375.289-.156a1.071,1.071,0,0,1,.42-.147l.131.014Zm-2.048-4.489c.089.081.089,7.627,0,7.707a.987.987,0,0,1-.42.057c-.294,0-.362-.014-.41-.09-.084-.147-.074-7.262.016-7.366a1.864,1.864,0,0,1,.672-.36A.21.21,0,0,1,5.346-488.567Zm-2.038,5.479c0,3.47-.016,4.555-.063,4.6a1.321,1.321,0,0,1-.767,0c-.1-.09-.089-8.821.011-8.9a3.226,3.226,0,0,1,.352-.19C3.355-487.833,3.308-488.273,3.308-483.088Zm2.038,3.337a2.572,2.572,0,0,1,.063.877v.82H4.463v-.787a4.137,4.137,0,0,1,.053-.877c.047-.076.116-.09.41-.09A.986.986,0,0,1,5.346-479.751Z" transform="translate(0)" fill="#41bdcc"/>
    </g>
  </g>
</svg>
