<svg xmlns="http://www.w3.org/2000/svg" version="1.1" xmlns:xlink="http://www.w3.org/1999/xlink" xmlns:svgjs="http://svgjs.com/svgjs" width="512" height="512" x="0" y="0" viewBox="0 0 512 512" style="enable-background:new 0 0 512 512" xml:space="preserve" class=""><g><linearGradient id="e" x1="243.872" x2="292.213" y1="25.166" y2="106.859" gradientUnits="userSpaceOnUse"><stop offset="0" stop-color="#eaf9fa"></stop><stop offset="1" stop-color="#b3dafe"></stop></linearGradient><linearGradient id="a"><stop offset="0" stop-color="#7bacdf" stop-opacity="0"></stop><stop offset="1" stop-color="#7bacdf"></stop></linearGradient><linearGradient xlink:href="#a" id="f" x1="377.816" x2="442.892" y1="79.334" y2="79.334" gradientUnits="userSpaceOnUse"></linearGradient><linearGradient xlink:href="#a" id="g" x1="223.998" x2="223.998" y1="175.555" y2="238.459" gradientUnits="userSpaceOnUse"></linearGradient><linearGradient xlink:href="#a" id="h" x1="421.497" x2="421.497" y1="135.239" y2="159.273" gradientUnits="userSpaceOnUse"></linearGradient><linearGradient id="b"><stop offset="0" stop-color="#fef0ae"></stop><stop offset="1" stop-color="#fbc56d"></stop></linearGradient><linearGradient xlink:href="#b" id="i" x1="250.382" x2="394.787" y1="231.6" y2="471.97" gradientUnits="userSpaceOnUse"></linearGradient><linearGradient id="c"><stop offset="0" stop-color="#dc8758" stop-opacity="0"></stop><stop offset=".215" stop-color="#dd8654" stop-opacity=".215"></stop><stop offset=".429" stop-color="#e28448" stop-opacity=".429"></stop><stop offset=".642" stop-color="#ea8034" stop-opacity=".642"></stop><stop offset=".854" stop-color="#f47b18" stop-opacity=".854"></stop><stop offset="1" stop-color="#fe7701"></stop></linearGradient><linearGradient xlink:href="#c" id="j" x1="250.001" x2="195.822" y1="437.826" y2="372.242" gradientUnits="userSpaceOnUse"></linearGradient><linearGradient xlink:href="#c" id="k" x1="228.34" x2="228.34" y1="406.662" y2="382.197" gradientUnits="userSpaceOnUse"></linearGradient><linearGradient xlink:href="#c" id="l" x1="144.988" x2="589.251" y1="133.267" y2="554.403" gradientUnits="userSpaceOnUse"></linearGradient><linearGradient xlink:href="#c" id="m" x1="452.937" x2="493.705" y1="352.056" y2="352.056" gradientUnits="userSpaceOnUse"></linearGradient><linearGradient xlink:href="#c" id="n" x1="322.747" x2="322.747" y1="420.694" y2="514.086" gradientUnits="userSpaceOnUse"></linearGradient><linearGradient xlink:href="#c" id="o" x1="277.575" x2="210.983" y1="334.571" y2="295.439" gradientUnits="userSpaceOnUse"></linearGradient><linearGradient id="p" x1="262.948" x2="327.178" y1="348.214" y2="348.214" gradientUnits="userSpaceOnUse"><stop offset="0" stop-color="#5a5a5a"></stop><stop offset="1" stop-color="#444"></stop></linearGradient><linearGradient id="d"><stop offset="0" stop-color="#433f43" stop-opacity="0"></stop><stop offset="1" stop-color="#1a1a1a"></stop></linearGradient><linearGradient xlink:href="#d" id="q" x1="279.727" x2="240.003" y1="348.214" y2="348.214" gradientUnits="userSpaceOnUse"></linearGradient><linearGradient xlink:href="#d" id="r" x1="289.519" x2="259.935" y1="322.413" y2="274.651" gradientUnits="userSpaceOnUse"></linearGradient><linearGradient xlink:href="#d" id="s" x1="294.341" x2="276.505" y1="407.212" y2="407.212" gradientUnits="userSpaceOnUse"></linearGradient><linearGradient xlink:href="#d" id="t" x1="296.175" x2="296.175" y1="410.82" y2="383.261" gradientUnits="userSpaceOnUse"></linearGradient><linearGradient xlink:href="#b" id="u" x1="95.767" x2="230.602" y1="268.492" y2="403.327" gradientUnits="userSpaceOnUse"></linearGradient><linearGradient xlink:href="#b" id="v" x1="138.27" x2="112.449" y1="348.21" y2="348.21" gradientUnits="userSpaceOnUse"></linearGradient><linearGradient xlink:href="#c" id="w" x1="180.009" x2="191.89" y1="369.905" y2="424.083" gradientUnits="userSpaceOnUse"></linearGradient><linearGradient xlink:href="#b" id="x" x1="78.294" x2="39.252" y1="367.074" y2="328.032" gradientUnits="userSpaceOnUse"></linearGradient><linearGradient xlink:href="#b" id="y" x1="271.14" x2="271.14" y1="351.058" y2="334.316" gradientUnits="userSpaceOnUse"></linearGradient><linearGradient xlink:href="#b" id="z" x1="277.979" x2="277.979" y1="369.592" y2="358.621" gradientUnits="userSpaceOnUse"></linearGradient><linearGradient xlink:href="#c" id="A" x1="286.323" x2="327.194" y1="346.911" y2="371.149" gradientUnits="userSpaceOnUse"></linearGradient><path fill="url(#e)" d="M443.096 120.349v29.935c0 4.631-9.517 8.383-21.265 8.383-11.738 0-21.265-3.752-21.265-8.383v-29.935c0-42.917-34.912-77.819-77.819-77.819s-77.819 34.902-77.819 77.819v108.142c0 4.631-9.527 8.383-21.265 8.383-11.748 0-21.265-3.752-21.265-8.383V120.349C202.399 53.984 256.383 0 322.747 0s120.349 53.984 120.349 120.349z" data-original="url(#e)" class=""></path><path fill="url(#f)" d="M322.747 0c-1.715 0-3.42.045-5.118.116v42.6a78.144 78.144 0 0 1 5.118-.187c42.907 0 77.819 34.902 77.819 77.819v29.935c0 4.631 9.527 8.383 21.265 8.383 11.748 0 21.265-3.752 21.265-8.383v-29.935C443.096 53.984 389.112 0 322.747 0z" data-original="url(#f)"></path><path fill="url(#g)" d="M223.663 236.874c11.738 0 21.265-3.752 21.265-8.383V120.349c0-3.403.243-6.749.669-10.038h-42.776a121.212 121.212 0 0 0-.422 10.038v108.142c0 4.631 9.517 8.383 21.264 8.383z" data-original="url(#g)"></path><path fill="url(#h)" d="M400.567 120.349v29.935c0 4.631 9.527 8.383 21.265 8.383 11.748 0 21.265-3.752 21.265-8.383v-29.935c0-3.381-.147-6.727-.422-10.038h-42.776c.424 3.289.668 6.634.668 10.038z" data-original="url(#h)"></path><path fill="url(#i)" d="M462.826 498.584c-93.194 17.889-186.964 17.888-280.158 0-11.557-2.218-20.896-12.353-23.902-25.771-18.005-80.357-18.006-161.151 0-241.512 3.007-13.418 12.345-23.553 23.902-25.771 93.194-17.889 186.964-17.888 280.158 0 11.557 2.218 20.896 12.353 23.902 25.771 18.006 80.361 18.005 161.155 0 241.512-3.006 13.418-12.344 23.552-23.902 25.771z" data-original="url(#i)" class=""></path><path fill="url(#j)" d="M311.355 360.087h-166.03c.558 37.611 5.037 75.216 13.441 112.725 3.006 13.418 12.345 23.553 23.902 25.771 42.811 8.218 85.744 12.649 128.687 13.317z" data-original="url(#j)"></path><path fill="url(#k)" d="M311.355 360.087h-166.03c.558 37.611 5.037 75.216 13.441 112.725 3.006 13.418 12.345 23.553 23.902 25.771 42.811 8.218 85.744 12.649 128.687 13.317z" data-original="url(#k)"></path><path fill="url(#l)" d="M486.728 231.3c-3.007-13.419-12.345-23.553-23.902-25.771-55.382-10.631-110.968-14.943-166.515-12.939 37.925 1.368 75.833 5.681 113.646 12.939 11.557 2.218 20.896 12.353 23.902 25.771 18.006 80.361 18.005 161.155 0 241.512-3.007 13.418-12.345 23.553-23.902 25.771-37.812 7.258-75.719 11.57-113.644 12.939 55.547 2.004 111.131-2.308 166.513-12.939 11.557-2.218 20.896-12.353 23.902-25.771 18.005-80.357 18.006-161.151 0-241.512z" data-original="url(#l)"></path><path fill="url(#m)" d="M462.826 205.529a752.148 752.148 0 0 0-58.903-8.9v7.772c2.011.369 4.022.743 6.033 1.129 11.557 2.218 20.896 12.353 23.902 25.771 18.006 80.361 18.005 161.155 0 241.512-3.007 13.418-12.345 23.553-23.902 25.771-2.011.386-4.022.759-6.033 1.129v7.772a752.763 752.763 0 0 0 58.903-8.9c11.557-2.218 20.896-12.353 23.902-25.771 18.005-80.357 18.006-161.151 0-241.512-3.006-13.421-12.344-23.555-23.902-25.773z" data-original="url(#m)"></path><path fill="url(#n)" d="M158.766 472.812c3.007 13.419 12.345 23.553 23.902 25.771 93.194 17.888 186.964 17.889 280.158 0 11.557-2.218 20.896-12.353 23.902-25.771 9.002-40.179 13.504-80.468 13.504-120.756h-354.97c.001 40.289 4.502 80.577 13.504 120.756z" data-original="url(#n)" class=""></path><path fill="url(#o)" d="M296.311 450.1c-18.754 0-34.012-15.258-34.012-34.012v-32.803c0-7.111-3.106-13.742-8.521-18.194-16.258-13.366-25.162-33.099-24.429-54.139.602-17.303 7.848-33.527 20.402-45.683 12.547-12.149 28.992-18.875 46.305-18.94h.255c36.946 0 67.004 30.057 67.004 67.003 0 20.107-8.918 38.971-24.466 51.756-5.418 4.455-8.526 11.087-8.526 18.198v32.803c0 18.753-15.258 34.011-34.012 34.011z" data-original="url(#o)" class=""></path><path fill="url(#p)" d="M348.869 313.331c0-29.094-23.64-52.667-52.759-52.558-28.036.105-51.348 22.662-52.324 50.681-.596 17.115 6.998 32.474 19.166 42.477 8.768 7.208 13.793 18.003 13.793 29.353v32.804c0 10.806 8.76 19.566 19.566 19.566s19.566-8.76 19.566-19.566v-32.104l-2-.7c0-11.352 4.028-23.147 12.797-30.356 9.772-8.034 21.591-31.603 21.591-31.603.367-2.611.604-5.276.604-7.994z" data-original="url(#p)"></path><path fill="url(#q)" d="M348.869 313.331c0-29.094-23.64-52.667-52.759-52.558-28.036.105-51.348 22.662-52.324 50.681-.596 17.115 6.998 32.474 19.166 42.477 8.768 7.208 13.793 18.003 13.793 29.353v32.804c0 10.806 8.76 19.566 19.566 19.566s19.566-8.76 19.566-19.566v-32.104l-2-.7c0-11.352 4.028-23.147 12.797-30.356 9.772-8.034 21.591-31.603 21.591-31.603.367-2.611.604-5.276.604-7.994z" data-original="url(#q)"></path><path fill="url(#r)" d="M348.869 313.331c0-29.094-23.64-52.667-52.759-52.558-28.036.105-51.348 22.662-52.324 50.681-.596 17.115 6.998 32.474 19.166 42.477 8.768 7.208 13.793 18.003 13.793 29.353v32.804c0 10.806 8.76 19.566 19.566 19.566s19.566-8.76 19.566-19.566v-32.104l-2-.7c0-11.352 4.028-23.147 12.797-30.356 9.772-8.034 21.591-31.603 21.591-31.603.367-2.611.604-5.276.604-7.994z" data-original="url(#r)" class=""></path><path fill="url(#s)" d="M276.472 378.769c.177 1.491.273 2.998.273 4.516v32.804c0 10.806 8.76 19.566 19.566 19.566s19.566-8.76 19.566-19.566v-32.104l-2-.7c0-1.502.075-3.01.218-4.516z" data-original="url(#s)"></path><path fill="url(#t)" d="M276.472 378.769c.177 1.491.273 2.998.273 4.516v32.804c0 10.806 8.76 19.566 19.566 19.566s19.566-8.76 19.566-19.566v-32.104l-2-.7c0-1.502.075-3.01.218-4.516z" data-original="url(#t)"></path><path fill="url(#u)" d="M59.438 369.699c-11.87 0-21.49-9.62-21.49-21.48 0-11.87 9.62-21.48 21.49-21.48 11.86 0 21.48 9.61 21.48 21.48 0 11.86-9.62 21.48-21.48 21.48zm151.454-48.374c-16.13 0-31.25-7.99-40.24-21.39-15.52-23.13-41.85-38.38-71.76-38.5-46.98-.18-86 37.72-87.1 84.69-1.15 48.88 38.13 88.86 86.76 88.86 27.36 0 51.76-12.66 67.66-32.45 9.34-11.61 23.29-18.55 38.19-18.55h111.47v-.7c0-11.35 5.03-22.15 13.8-29.36 9.77-8.03 16.6-19.53 18.59-32.6z" data-original="url(#u)" class=""></path><path fill="url(#v)" d="M125.787 386.9c-7.28 0-13.181-5.901-13.181-13.181V322.7c0-7.28 5.901-13.181 13.181-13.181 7.28 0 13.181 5.901 13.181 13.181v51.019c.001 7.28-5.901 13.181-13.181 13.181z" data-original="url(#v)"></path><path fill="url(#w)" d="M80.254 343.002c.418 1.673.664 3.414.664 5.216 0 11.86-9.62 21.48-21.48 21.48-11.87 0-21.49-9.62-21.49-21.48 0-1.803.246-3.544.664-5.216H11.945c-.062 1.038-.128 2.075-.152 3.123-1.15 48.88 38.13 88.86 86.76 88.86 27.36 0 51.76-12.66 67.66-32.45 9.34-11.61 23.29-18.55 38.19-18.55h111.47v-.7c0-11.35 5.03-22.15 13.8-29.36a52.835 52.835 0 0 0 10.003-10.923z" data-original="url(#w)"></path><path fill="url(#x)" d="M59.438 317.659c-16.88 0-30.56 13.68-30.56 30.56 0 16.87 13.68 30.55 30.56 30.55 16.87 0 30.55-13.68 30.55-30.55 0-16.88-13.68-30.56-30.55-30.56zm0 47.44c-9.33 0-16.88-7.56-16.88-16.88s7.55-16.88 16.88-16.88c9.32 0 16.88 7.56 16.88 16.88s-7.56 16.88-16.88 16.88z" data-original="url(#x)"></path><path fill="url(#y)" d="M206.682 333.949a9.054 9.054 0 1 0 0 18.107h125.13a52.657 52.657 0 0 0 12.84-18.107z" data-original="url(#y)"></path><path fill="url(#z)" d="M235.805 356.704a6.497 6.497 0 0 0 0 12.994h82.572a37.828 37.828 0 0 1 8.274-12.995h-90.846z" data-original="url(#z)"></path><path fill="url(#A)" d="M243.753 383.985h72.119v-.7c0-11.35 5.03-22.15 13.8-29.36 9.77-8.03 16.6-19.53 18.59-32.6H243.753z" data-original="url(#A)"></path></g></svg>