<svg xmlns="http://www.w3.org/2000/svg" width="50.75" height="72.134" viewBox="0 0 50.75 72.134">
  <g id="voter" transform="translate(-75.9 511.836)">
    <path id="Path_160" data-name="Path 160" d="M89.317-511.7a12.862,12.862,0,0,0-9.964,9.569,10.947,10.947,0,0,0-.254,3.1,8.861,8.861,0,0,0,.395,3.284,12.731,12.731,0,0,0,6.356,7.808,16.665,16.665,0,0,0,1.945.832l.817.254-.042,12.12c-.042,11.852-.042,12.148-.324,12.6a2.037,2.037,0,0,1-3.523,0c-.268-.437-.282-.789-.352-6.737-.07-6.13-.085-6.286-.381-6.849a3.844,3.844,0,0,0-1.9-1.874,3.268,3.268,0,0,0-1.945-.437,3.268,3.268,0,0,0-1.945.437,3.655,3.655,0,0,0-1.959,2.058l-.338.733.056,8.851c.07,9.527.056,9.316.874,12.4a28.1,28.1,0,0,0,7.5,12.613L85.6-439.7h31.343l.55-.536a69.516,69.516,0,0,0,4.693-5.271c2.1-2.96,3.34-6.342,4.186-11.317.254-1.564.282-2.311.282-10.288,0-8.061-.028-8.625-.268-9.161a3.028,3.028,0,0,0-2.9-1.762,3.14,3.14,0,0,0-2.227.817c-.874.817-.874.817-.944,5.806-.056,4.059-.1,4.637-.324,5.045a2.086,2.086,0,0,1-3.58,0c-.225-.423-.254-1.057-.324-7.159-.07-7.328-.042-7.075-.944-7.92a3.419,3.419,0,0,0-4.453,0c-.9.846-.874.592-.944,7.92-.085,7.427-.056,7.314-1.029,7.892a2.124,2.124,0,0,1-2.875-.733c-.24-.423-.254-1.142-.324-9.273-.07-9.668-.028-9.175-.944-10.034a3.419,3.419,0,0,0-4.453,0c-.916.86-.874.366-.944,10.034-.07,8.132-.085,8.851-.324,9.273a2.086,2.086,0,0,1-3.58,0c-.24-.437-.254-1.156-.3-10.485l-.042-10.006.817-.254a13.254,13.254,0,0,0,6-4.172,12.751,12.751,0,0,0-7.314-20.365A20.742,20.742,0,0,0,89.317-511.7Zm4.989,4.566a8.6,8.6,0,0,1,5.44,5.44,9.346,9.346,0,0,1,0,5.059,9.031,9.031,0,0,1-3.946,4.763l-.86.465v-2.72c0-2.339-.042-2.79-.268-3.284a3.028,3.028,0,0,0-2.9-1.762,3.028,3.028,0,0,0-2.9,1.762c-.225.493-.268.944-.268,3.284v2.734l-.8-.451a8.722,8.722,0,0,1-3.96-4.693,8.926,8.926,0,0,1-.042-5.158,8.452,8.452,0,0,1,7.131-5.778A8.939,8.939,0,0,1,94.306-507.138Zm3.833,46.578a2.068,2.068,0,0,1-.085,3.453,2,2,0,0,1-2.974-1.733,1.879,1.879,0,0,1,1.973-2A2.214,2.214,0,0,1,98.139-460.56Zm10.57,0a2.068,2.068,0,0,1-.085,3.453,2,2,0,0,1-2.974-1.733,1.879,1.879,0,0,1,1.973-2A2.214,2.214,0,0,1,108.709-460.56Zm10.57,0a2.068,2.068,0,0,1-.085,3.453,2,2,0,0,1-2.974-1.733,1.879,1.879,0,0,1,1.973-2A2.214,2.214,0,0,1,119.279-460.56Z" transform="translate(0 0)" fill="#41bdcc"/>
  </g>
</svg>
