<svg xmlns="http://www.w3.org/2000/svg" width="32" height="32" viewBox="0 0 32 32">
  <g id="Group_76" data-name="Group 76" transform="translate(-287 -680)">
    <rect id="Rectangle_250" data-name="Rectangle 250" width="32" height="32" transform="translate(287 680)" fill="#fff"/>
    <g id="voter" transform="translate(204.972 1196.309)">
      <path id="Path_228" data-name="Path 228" d="M95.037-511.642a4.844,4.844,0,0,0-3.374,2.584,4.021,4.021,0,0,0-.494,2.008,4.266,4.266,0,0,0,.249,1.823,4.862,4.862,0,0,0,2.188,2.6l.318.171v1.92l-.1-.037a3.968,3.968,0,0,0-.637-.037,1.354,1.354,0,0,0-.854.157,2.217,2.217,0,0,0-1,1l-.157.323v2.584c0,2.737,0,2.8.231,3.72a9.267,9.267,0,0,0,1.634,3.387,9.016,9.016,0,0,0,1.126,1.228l.185.134h8.833l.185-.134a9.016,9.016,0,0,0,1.126-1.228,9.091,9.091,0,0,0,1.818-4.324,24.1,24.1,0,0,0,.06-2.949l-.014-2.418-.157-.323a2.217,2.217,0,0,0-1-1,1.354,1.354,0,0,0-.854-.157,3.8,3.8,0,0,0-.655.037c-.12.032-.134.018-.272-.277a2.222,2.222,0,0,0-.988-.988,1.354,1.354,0,0,0-.854-.157,3.8,3.8,0,0,0-.655.037c-.12.032-.134.018-.272-.277a2.2,2.2,0,0,0-.941-.96c-.152-.074-.286-.138-.291-.143a2,2,0,0,1,.245-.318,5.028,5.028,0,0,0,1.02-1.9,3.318,3.318,0,0,0,.129-1.311,3.374,3.374,0,0,0-.125-1.315,4.844,4.844,0,0,0-2.5-3.023,3.975,3.975,0,0,0-2.077-.489A4.82,4.82,0,0,0,95.037-511.642Zm1.74,1.435a3.465,3.465,0,0,1,2.294,1.841,2.945,2.945,0,0,1,.346,1.5,3.011,3.011,0,0,1-.3,1.408,3.184,3.184,0,0,1-.729,1.043l-.291.286-.023-1.657-.023-1.657-.157-.323a2.217,2.217,0,0,0-1-1,1.434,1.434,0,0,0-.9-.157,1.434,1.434,0,0,0-.9.157,2.217,2.217,0,0,0-1,1l-.157.323-.023,1.657-.023,1.657-.282-.277a4.57,4.57,0,0,1-.429-.494,4.236,4.236,0,0,1-.535-1.191,4.187,4.187,0,0,1,.023-1.624,3.474,3.474,0,0,1,2.972-2.561A3.479,3.479,0,0,1,96.777-510.207Zm-.443,2.774a.919.919,0,0,1,.235.245l.1.162.023,5.077c.028,5.6,0,5.178.309,5.381a.891.891,0,0,0,.766,0c.3-.194.286-.078.309-2.612.023-2.271.023-2.312.125-2.469a.639.639,0,0,1,.568-.323.639.639,0,0,1,.568.323c.1.157.1.2.125,2.469.023,2.534.014,2.418.309,2.612a.891.891,0,0,0,.766,0c.291-.189.286-.152.309-1.92.023-1.509.028-1.625.115-1.768a.661.661,0,0,1,1.145-.009c.1.157.1.217.125,1.777.023,1.768.018,1.731.309,1.92a.891.891,0,0,0,.766,0c.272-.175.286-.226.309-1.228.023-.845.032-.937.125-1.085a.639.639,0,0,1,.568-.323.639.639,0,0,1,.568.323c.1.157.1.212.115,1.754a12.529,12.529,0,0,1-.429,4.5,8.555,8.555,0,0,1-1.638,2.8l-.332.355H94.954l-.3-.314a7.611,7.611,0,0,1-1.906-3.627,17.006,17.006,0,0,1-.2-3.7c.014-1.449.023-1.629.1-1.768a.654.654,0,0,1,.577-.332.648.648,0,0,1,.577.323c.1.157.1.208.125,2.146.018,1.768.032,2,.1,2.1a.656.656,0,0,0,.591.281.656.656,0,0,0,.591-.281c.074-.1.078-.577.1-6.249l.023-6.138.1-.152A.679.679,0,0,1,96.334-507.433Z" fill="#41bdcc"/>
      <path id="Path_229" data-name="Path 229" d="M211.3-151.912a.649.649,0,0,0-.3.6.648.648,0,0,0,.3.6.7.7,0,0,0,.388.088.648.648,0,0,0,.6-.3.88.88,0,0,0,0-.775.648.648,0,0,0-.6-.3A.7.7,0,0,0,211.3-151.912Z" transform="translate(-114.306 -343.097)" fill="#41bdcc"/>
      <path id="Path_230" data-name="Path 230" d="M271.3-151.912a.649.649,0,0,0-.3.6.632.632,0,0,0,.692.692.632.632,0,0,0,.692-.692.632.632,0,0,0-.692-.692A.7.7,0,0,0,271.3-151.912Z" transform="translate(-171.537 -343.097)" fill="#41bdcc"/>
      <path id="Path_231" data-name="Path 231" d="M331.3-151.912a.649.649,0,0,0-.3.6.632.632,0,0,0,.692.692.632.632,0,0,0,.692-.692.632.632,0,0,0-.692-.692A.7.7,0,0,0,331.3-151.912Z" transform="translate(-228.768 -343.097)" fill="#41bdcc"/>
    </g>
  </g>
</svg>
